<svg width="42" height="41" viewBox="0 0 42 41" fill="none" xmlns="http://www.w3.org/2000/svg">
<path d="M0.886966 37.095C0.886308 37.608 0.986865 38.1161 1.18288 38.5902C1.37889 39.0642 1.6665 39.495 2.02925 39.8577C2.39199 40.2205 2.82274 40.5081 3.29681 40.7041C3.77088 40.9001 4.27897 41.0007 4.79197 41H37.987C38.4995 41 39.0071 40.899 39.4806 40.7027C39.9541 40.5064 40.3842 40.2186 40.7465 39.856C41.1087 39.4933 41.3958 39.0628 41.5915 38.589C41.7872 38.1153 41.8876 37.6076 41.887 37.095V3.905C41.8876 3.39201 41.7871 2.88392 41.5911 2.40985C41.395 1.93577 41.1074 1.50503 40.7447 1.14228C40.3819 0.77954 39.9512 0.491925 39.4771 0.295913C39.003 0.0999017 38.495 -0.000654901 37.982 3.20954e-06H4.79197C4.27897 -0.000654901 3.77088 0.0999017 3.29681 0.295913C2.82274 0.491925 2.39199 0.77954 2.02925 1.14228C1.6665 1.50503 1.37889 1.93577 1.18288 2.40985C0.986865 2.88392 0.886308 3.39201 0.886966 3.905V37.095ZM12.509 32.259C12.2662 32.679 11.8665 32.9853 11.3978 33.1106C10.9292 33.2358 10.4299 33.1698 10.01 32.927C9.59 32.6842 9.28368 32.2845 9.15841 31.8159C9.03313 31.3472 9.09916 30.848 9.34197 30.428L10.651 28.168C11.2862 27.9259 11.983 27.8966 12.6363 28.0846C13.2897 28.2725 13.8644 28.6674 14.274 29.21L12.507 32.257L12.509 32.259ZM34.203 23.668C34.6887 23.668 35.1546 23.861 35.498 24.2044C35.8415 24.5479 36.0345 25.0138 36.0345 25.4995C36.0345 25.9852 35.8415 26.4511 35.498 26.7946C35.1546 27.138 34.6887 27.331 34.203 27.331H31.548L33.342 30.431C33.5848 30.851 33.6508 31.3502 33.5255 31.8189C33.4003 32.2875 33.0939 32.6872 32.674 32.93C32.254 33.1728 31.7548 33.2388 31.2861 33.1136C30.8175 32.9883 30.4178 32.682 30.175 32.262C27.165 27.0547 24.907 23.1467 23.401 20.538C22.8019 19.5802 22.5406 18.4494 22.6585 17.3259C22.7765 16.2023 23.267 15.1505 24.052 14.338C25.252 16.4153 27.0486 19.5267 29.442 23.672H34.203V23.668ZM8.57297 23.668H13.242L19.228 13.309L17.352 10.07C17.2317 9.86205 17.1537 9.63246 17.1222 9.39434C17.0907 9.15621 17.1064 8.91421 17.1684 8.68216C17.2937 8.2135 17.6 7.81381 18.02 7.571C18.4399 7.3282 18.9392 7.26217 19.4078 7.38744C19.8765 7.51272 20.2762 7.81903 20.519 8.239L21.334 9.648L22.149 8.239C22.3918 7.81903 22.7915 7.51272 23.2601 7.38744C23.7288 7.26217 24.228 7.3282 24.648 7.571C25.0679 7.81381 25.3743 8.2135 25.4995 8.68216C25.6248 9.15081 25.5588 9.65003 25.316 10.07L17.463 23.67H23.147C23.5643 23.6954 23.9686 23.8247 24.3233 24.046C24.6781 24.2673 24.9719 24.5737 25.1782 24.9373C25.3845 25.3009 25.4967 25.7103 25.5047 26.1283C25.5127 26.5464 25.4162 26.9597 25.224 27.331H8.57297C8.08722 27.331 7.62137 27.138 7.2779 26.7946C6.93443 26.4511 6.74147 25.9852 6.74147 25.4995C6.74147 25.0138 6.93443 24.5479 7.2779 24.2044C7.62137 23.861 8.08722 23.668 8.57297 23.668Z" fill="#003887"/>
</svg>
