<svg width="1062" height="1160" viewBox="0 0 1062 1160" fill="none" xmlns="http://www.w3.org/2000/svg">
<path d="M842.438 855.272C887.623 797.313 912.111 725.899 912 652.408C912 469.83 763.992 321.822 581.414 321.822C398.836 321.822 250.827 469.827 250.827 652.405C250.716 725.896 275.204 797.31 320.389 855.269H842.438V855.272Z" fill="#003887" fill-opacity="0.07"/>
<path d="M907.686 859.587H277.694C276.55 859.587 275.453 859.133 274.644 858.324C273.836 857.515 273.381 856.418 273.381 855.274C273.381 854.13 273.836 853.033 274.644 852.224C275.453 851.415 276.55 850.961 277.694 850.961H907.686C908.83 850.961 909.927 851.415 910.736 852.224C911.545 853.033 911.999 854.13 911.999 855.274C911.999 856.418 911.545 857.515 910.736 858.324C909.927 859.133 908.83 859.587 907.686 859.587Z" fill="#003887"/>
<path d="M678.531 867.488L816.353 386.747C818.739 378.422 817.721 369.491 813.522 361.918C809.324 354.344 802.289 348.748 793.965 346.362L527.877 270.078C519.553 267.692 510.622 268.71 503.048 272.909C495.475 277.107 489.879 284.142 487.492 292.466L349.67 773.208C347.284 781.532 348.302 790.463 352.501 798.037C356.7 805.611 363.735 811.206 372.059 813.593L638.145 889.877C646.469 892.255 655.397 891.233 662.968 887.035C670.54 882.838 676.137 875.808 678.531 867.488Z" fill="#1F71E5"/>
<path d="M427.942 769.991L445.851 707.521C448.757 697.385 442.896 686.811 432.759 683.905L432.758 683.905C422.621 680.999 412.048 686.86 409.142 696.997L391.232 759.467C388.326 769.604 394.188 780.177 404.325 783.083L404.326 783.084C414.463 785.99 425.036 780.128 427.942 769.991Z" fill="white"/>
<path d="M505.377 813.153L600.526 481.261C602.034 476.003 598.993 470.518 593.735 469.011C588.477 467.503 582.992 470.544 581.484 475.802L486.335 807.694C484.828 812.952 487.868 818.437 493.127 819.944C498.385 821.452 503.87 818.411 505.377 813.153Z" fill="#F7F7F7"/>
<path d="M535.027 824.154L611.402 557.749C612.542 553.774 610.243 549.628 606.268 548.488L606.267 548.488C602.292 547.348 598.146 549.647 597.007 553.622L520.632 820.027C519.492 824.002 521.791 828.148 525.766 829.288L525.767 829.288C529.742 830.428 533.888 828.129 535.027 824.154Z" fill="#F7F7F7"/>
<path d="M565.362 832.851L641.737 566.445C642.876 562.47 640.578 558.324 636.603 557.185L636.602 557.184C632.627 556.045 628.481 558.343 627.341 562.318L550.966 828.724C549.827 832.699 552.125 836.845 556.1 837.985L556.101 837.985C560.076 839.124 564.222 836.826 565.362 832.851Z" fill="#F7F7F7"/>
<path d="M543.038 323.738C544.595 324.181 546.004 325.034 547.117 326.21C548.302 327.477 549.127 329.037 549.508 330.729C549.955 332.692 549.951 334.732 549.496 336.694L553.174 337.748L552.34 340.657L548.617 339.589C547.721 342.214 546.028 344.494 543.774 346.112C542.734 346.805 541.552 347.258 540.315 347.439C539.078 347.62 537.816 347.524 536.62 347.158L538.573 340.347C539.523 340.621 540.54 340.547 541.441 340.138C542.342 339.73 543.067 339.014 543.488 338.119L534.812 335.632C533.876 337.302 532.825 338.905 531.667 340.431C530.712 341.627 529.464 342.556 528.044 343.127C526.311 343.755 524.415 343.766 522.674 343.16C521.446 342.847 520.304 342.263 519.33 341.453C518.356 340.642 517.575 339.625 517.044 338.474C515.901 335.914 515.635 333.048 516.286 330.32L512.606 329.265L513.44 326.357L517.118 327.411C517.95 324.894 519.575 322.714 521.749 321.196C522.797 320.54 523.967 320.102 525.188 319.907C526.409 319.713 527.656 319.766 528.856 320.064L526.89 326.923C526.02 326.753 525.118 326.852 524.305 327.206C523.493 327.561 522.807 328.155 522.34 328.908L530.922 331.369C531.883 329.667 532.952 328.029 534.122 326.465C535.06 325.276 536.291 324.35 537.693 323.778C539.416 323.146 541.306 323.132 543.038 323.738ZM524.26 336.44C524.7 336.587 525.165 336.643 525.627 336.607C526.089 336.57 526.54 336.442 526.951 336.228C527.871 335.682 528.65 334.93 529.228 334.031L521.37 331.778C521.187 332.784 521.358 333.823 521.854 334.718C522.396 335.588 523.262 336.207 524.26 336.44ZM544.41 335.236C544.556 334.159 544.333 333.064 543.776 332.13C543.241 331.276 542.4 330.657 541.424 330.401C540.984 330.255 540.519 330.203 540.057 330.248C539.596 330.294 539.149 330.436 538.746 330.665C537.828 331.254 537.049 332.036 536.464 332.957L544.41 335.236Z" fill="white"/>
<path d="M521.979 876.73L881.707 529.306C887.936 523.29 891.519 515.047 891.67 506.388C891.821 497.73 888.526 489.367 882.511 483.138L690.214 284.03C684.198 277.802 675.954 274.218 667.296 274.068C658.638 273.917 650.274 277.212 644.045 283.227L284.317 630.65C278.089 636.666 274.505 644.91 274.354 653.568C274.204 662.226 277.498 670.59 283.514 676.819L475.809 875.926C481.829 882.147 490.072 885.726 498.728 885.877C507.384 886.027 515.746 882.738 521.979 876.73Z" fill="#094BA8"/>
<path d="M353.711 667L400.456 621.854C408.041 614.529 408.251 602.441 400.926 594.856L400.925 594.855C393.599 587.27 381.512 587.06 373.926 594.385L327.182 639.531C319.596 646.857 319.386 658.945 326.712 666.53L326.712 666.53C334.038 674.116 346.126 674.326 353.711 667Z" fill="white"/>
<path d="M399.191 743.097L647.538 503.245C651.473 499.445 651.582 493.174 647.782 489.24C643.982 485.305 637.712 485.196 633.777 488.996L385.43 728.848C381.495 732.648 381.386 738.919 385.186 742.853C388.986 746.788 395.256 746.897 399.191 743.097Z" fill="#F7F7F7"/>
<path d="M419.368 767.45L618.713 574.923C621.688 572.05 621.77 567.311 618.898 564.336L618.897 564.335C616.024 561.361 611.284 561.279 608.31 564.151L408.964 756.678C405.99 759.55 405.908 764.29 408.78 767.265L408.781 767.265C411.654 770.24 416.393 770.322 419.368 767.45Z" fill="#F7F7F7"/>
<path d="M441.29 790.148L640.636 597.622C643.61 594.749 643.693 590.009 640.82 587.035L640.819 587.034C637.947 584.06 633.207 583.977 630.232 586.85L430.887 779.377C427.912 782.249 427.83 786.989 430.703 789.963L430.703 789.964C433.576 792.938 438.316 793.021 441.29 790.148Z" fill="#F7F7F7"/>
<path d="M676.513 338.082C677.641 339.243 678.434 340.688 678.81 342.262C679.203 343.951 679.138 345.715 678.621 347.371C678.027 349.295 677.004 351.059 675.629 352.531L678.287 355.283L676.11 357.385L673.42 354.599C671.331 356.424 668.725 357.552 665.965 357.826C664.717 357.906 663.467 357.708 662.305 357.246C661.143 356.784 660.098 356.07 659.246 355.155L664.343 350.233C665.029 350.945 665.946 351.39 666.93 351.486C667.915 351.583 668.901 351.326 669.713 350.761L663.443 344.269C661.797 345.247 660.085 346.11 658.32 346.852C656.895 347.411 655.349 347.592 653.834 347.376C652.019 347.053 650.371 346.115 649.167 344.72C648.26 343.834 647.562 342.758 647.124 341.569C646.686 340.38 646.518 339.108 646.634 337.846C646.925 335.058 648.127 332.443 650.054 330.406L647.395 327.652L649.571 325.55L652.229 328.303C654.209 326.539 656.706 325.463 659.348 325.236C660.584 325.192 661.815 325.397 662.97 325.839C664.125 326.281 665.178 326.951 666.069 327.809L660.937 332.766C660.268 332.183 659.438 331.818 658.557 331.719C657.675 331.62 656.785 331.791 656.004 332.211L662.206 338.633C663.888 337.639 665.633 336.755 667.429 335.985C668.836 335.425 670.364 335.238 671.865 335.444C673.673 335.758 675.316 336.69 676.513 338.082ZM653.901 339.693C654.208 340.04 654.582 340.321 655.001 340.521C655.42 340.721 655.874 340.834 656.337 340.855C657.406 340.842 658.457 340.58 659.407 340.09L653.728 334.21C653.067 334.991 652.696 335.976 652.678 336.998C652.712 338.023 653.152 338.992 653.901 339.693ZM671.953 348.725C672.618 347.865 672.972 346.806 672.957 345.719C672.921 344.711 672.501 343.755 671.784 343.046C671.477 342.699 671.099 342.421 670.677 342.229C670.255 342.038 669.797 341.938 669.333 341.935C668.243 341.986 667.178 342.274 666.21 342.779L671.953 348.725Z" fill="white"/>
<path d="M398.067 819.94L873.689 665.373C881.925 662.696 888.76 656.858 892.691 649.142C896.621 641.426 897.327 632.465 894.651 624.229L809.099 360.975C806.422 352.74 800.583 345.905 792.867 341.974C785.151 338.043 776.19 337.338 767.954 340.014L292.332 494.581C284.097 497.258 277.262 503.097 273.331 510.813C269.4 518.529 268.695 527.49 271.371 535.726L356.923 798.978C359.606 807.209 365.446 814.039 373.16 817.969C380.874 821.899 389.831 822.608 398.067 819.94Z" fill="#003887"/>
<path d="M338.768 557.673L400.573 537.588C410.602 534.329 416.09 523.557 412.831 513.528L412.83 513.527C409.571 503.498 398.799 498.01 388.77 501.269L326.966 521.355C316.937 524.614 311.449 535.386 314.708 545.415L314.708 545.416C317.967 555.444 328.74 560.932 338.768 557.673Z" fill="white"/>
<path d="M346.287 646.005L674.644 539.296C679.847 537.605 682.693 532.018 681.003 526.815C679.312 521.613 673.724 518.766 668.522 520.457L340.165 627.166C334.962 628.857 332.115 634.445 333.806 639.647C335.497 644.849 341.085 647.696 346.287 646.005Z" fill="#F7F7F7"/>
<path d="M353.747 676.738L617.315 591.084C621.248 589.806 623.4 585.582 622.122 581.649L622.121 581.648C620.843 577.716 616.619 575.564 612.687 576.842L349.118 662.496C345.186 663.774 343.034 667.998 344.312 671.931L344.312 671.932C345.59 675.864 349.814 678.016 353.747 676.738Z" fill="#F7F7F7"/>
<path d="M363.499 706.75L627.068 621.096C631.001 619.818 633.153 615.594 631.875 611.661L631.874 611.66C630.596 607.727 626.372 605.575 622.44 606.853L358.871 692.508C354.938 693.786 352.786 698.01 354.064 701.942L354.065 701.943C355.343 705.876 359.567 708.028 363.499 706.75Z" fill="#F7F7F7"/>
<path d="M773.09 403.55C773.594 405.089 773.674 406.734 773.322 408.314C772.934 410.005 772.102 411.561 770.912 412.823C769.535 414.292 767.841 415.429 765.961 416.149L767.143 419.788L764.265 420.723L763.068 417.039C760.391 417.765 757.554 417.636 754.953 416.672C753.797 416.197 752.76 415.471 751.918 414.546C751.076 413.622 750.45 412.522 750.085 411.326L756.824 409.136C757.128 410.077 757.758 410.879 758.6 411.397C759.443 411.916 760.442 412.117 761.419 411.965L758.63 403.382C756.721 403.539 754.804 403.565 752.892 403.458C751.367 403.335 749.899 402.82 748.631 401.962C747.142 400.876 746.072 399.31 745.601 397.528C745.174 396.335 745.019 395.062 745.146 393.801C745.274 392.54 745.68 391.324 746.337 390.24C747.821 387.861 750.048 386.038 752.673 385.052L751.49 381.412L754.368 380.476L755.55 384.115C758.103 383.398 760.819 383.526 763.293 384.48C764.423 384.982 765.44 385.706 766.284 386.61C767.128 387.513 767.781 388.577 768.206 389.738L761.42 391.944C761.074 391.127 760.488 390.435 759.739 389.96C758.991 389.484 758.115 389.248 757.229 389.282L759.989 397.773C761.936 397.618 763.892 397.588 765.844 397.683C767.354 397.796 768.81 398.299 770.068 399.141C771.556 400.217 772.624 401.775 773.09 403.55ZM752.059 395.086C752.184 395.532 752.397 395.949 752.685 396.312C752.974 396.675 753.333 396.976 753.74 397.198C754.706 397.655 755.766 397.881 756.834 397.857L754.308 390.082C753.371 390.494 752.606 391.216 752.142 392.128C751.723 393.064 751.694 394.128 752.059 395.086ZM764.325 411.117C765.3 410.636 766.083 409.839 766.545 408.855C766.955 407.934 766.997 406.89 766.663 405.939C766.539 405.492 766.322 405.077 766.026 404.72C765.73 404.363 765.363 404.072 764.947 403.866C763.945 403.434 762.861 403.225 761.77 403.255L764.325 411.117Z" fill="white"/>
</svg>
