<svg width="34" height="36" viewBox="0 0 34 36" fill="none" xmlns="http://www.w3.org/2000/svg">
<path d="M16.6 10.5671C16.6472 10.6329 16.7086 10.6872 16.7797 10.726C16.8507 10.7648 16.9296 10.7872 17.0104 10.7914C17.0913 10.7956 17.172 10.7816 17.2467 10.7504C17.3214 10.7192 17.3882 10.6716 17.442 10.6111C17.7088 10.3122 17.9553 9.99588 18.18 9.66414C18.257 9.5535 18.2878 9.41715 18.2658 9.28414C18.2437 9.15113 18.1706 9.032 18.062 8.95214C17.9545 8.86435 17.8181 8.81972 17.6795 8.82693C17.5408 8.83414 17.4098 8.89267 17.312 8.99114C17.222 9.07814 17.146 9.18014 17.043 9.29714C16.958 9.19714 16.899 9.13014 16.843 9.06314C16.797 9.00568 16.7402 8.95784 16.6758 8.92235C16.6113 8.88686 16.5405 8.86441 16.4674 8.85629C16.3197 8.83988 16.1715 8.88281 16.0555 8.97563C15.9395 9.06846 15.8651 9.20358 15.8486 9.35126C15.8322 9.49895 15.8752 9.6471 15.968 9.76314C16.173 10.0381 16.383 10.3111 16.605 10.5731" fill="white"/>
<path d="M20.5081 7.44206C20.6528 7.44068 20.7914 7.38395 20.8956 7.28352C20.9997 7.18309 21.0615 7.04659 21.0681 6.90206C21.0831 6.72006 21.0681 6.53606 21.0681 6.35206C21.0681 6.16806 21.0811 5.96206 21.0681 5.76806C21.0667 5.69623 21.051 5.62541 21.0218 5.55975C20.9926 5.4941 20.9506 5.43493 20.8983 5.38574C20.8459 5.33655 20.7842 5.29832 20.7169 5.2733C20.6496 5.24829 20.5779 5.23698 20.5061 5.24006C20.4341 5.23549 20.3619 5.2459 20.2941 5.27065C20.2262 5.2954 20.1643 5.33394 20.1121 5.38384C20.06 5.43374 20.0187 5.49392 19.991 5.56057C19.9633 5.62722 19.9497 5.69889 19.9511 5.77106C19.9341 6.14806 19.9371 6.52706 19.9511 6.90406C19.9507 6.97611 19.9648 7.04751 19.9926 7.11397C20.0204 7.18043 20.0614 7.24059 20.113 7.29083C20.1647 7.34108 20.2259 7.38037 20.2931 7.40636C20.3603 7.43234 20.4321 7.44449 20.5041 7.44206" fill="white"/>
<path d="M12.9491 6.915C12.9504 7.05408 13.0067 7.18699 13.1056 7.28477C13.2045 7.38255 13.338 7.43727 13.4771 7.437C13.6163 7.44758 13.7541 7.40312 13.8609 7.31318C13.9677 7.22323 14.0349 7.09498 14.0481 6.956C14.072 6.54468 14.072 6.13232 14.0481 5.721C14.0376 5.58174 13.9724 5.45231 13.8667 5.36103C13.761 5.26976 13.6234 5.22408 13.4841 5.234C13.4121 5.23198 13.3405 5.24486 13.2738 5.27185C13.207 5.29883 13.1466 5.33933 13.0963 5.39079C13.0459 5.44226 13.0068 5.50358 12.9813 5.57091C12.9558 5.63823 12.9445 5.7101 12.9481 5.782C12.9391 5.965 12.9481 6.148 12.9481 6.331C12.9481 6.514 12.9391 6.721 12.9481 6.915" fill="white"/>
<path d="M6.46905 8.02211C5.24992 9.62982 4.53354 11.5622 4.41005 13.5761C4.40305 13.7761 4.27905 13.8181 4.14805 13.8861C3.32119 14.2855 2.56548 14.8179 1.91105 15.4621C1.60419 15.7182 1.35587 16.0372 1.18283 16.3976C1.0098 16.7579 0.916095 17.1511 0.908038 17.5507C0.899981 17.9504 0.977763 18.3471 1.13613 18.7141C1.2945 19.0811 1.52977 19.4098 1.82605 19.6781C1.87205 19.7291 1.92605 19.7781 1.97005 19.8251C2.97449 20.8048 4.18295 21.5506 5.50905 22.0091C9.2226 23.353 13.1635 23.956 17.109 23.7841C18.4894 23.819 19.8706 23.7813 21.247 23.6711C23.7694 23.4432 26.2475 22.8633 28.609 21.9481C29.8877 21.5003 31.0558 20.7843 32.0351 19.8481C32.3509 19.5941 32.6083 19.2751 32.7898 18.9127C32.9713 18.5504 33.0727 18.1532 33.087 17.7481C33.1013 17.3431 33.0283 16.9398 32.8728 16.5655C32.7173 16.1912 32.4831 15.8548 32.186 15.5791C31.5042 14.8474 30.685 14.2572 29.775 13.8421C29.6961 13.8158 29.6279 13.7645 29.5808 13.6959C29.5337 13.6273 29.5102 13.5452 29.514 13.4621C29.4748 12.5098 29.2673 11.572 28.901 10.6921C27.8696 8.38409 26.3888 6.30464 24.545 4.57511C23.6186 3.81076 22.7427 2.98702 21.923 2.10911C21.8123 1.97759 21.6876 1.85855 21.5511 1.75411C20.8376 1.1565 20.011 0.708921 19.1206 0.43813C18.2302 0.167339 17.2944 0.0789017 16.369 0.178107C15.4372 0.210683 14.5247 0.453233 13.6996 0.887666C12.8746 1.3221 12.1582 1.93721 11.604 2.68711C11.4901 2.83025 11.3584 2.95828 11.212 3.06811C9.40122 4.48296 7.8038 6.15145 6.46905 8.02211ZM6.32005 18.2921C6.02851 18.1574 5.76881 17.9624 5.55805 17.7201C5.47363 17.6398 5.42278 17.5304 5.41573 17.4141C5.40868 17.2977 5.44596 17.1831 5.52005 17.0931C5.69305 16.8851 5.82905 16.6061 6.20105 16.7051C6.78472 16.8477 7.40012 16.7767 7.93605 16.5051C8.04205 16.4571 8.17505 16.3481 8.18905 16.5891C8.25697 17.4597 8.45483 18.3151 8.77605 19.1271C7.92618 18.9493 7.10134 18.6679 6.32005 18.2891M24.1691 17.1481C23.8728 18.5448 23.2215 19.8415 22.278 20.9131C21.912 21.3899 21.3993 21.7332 20.819 21.8901C20.6969 21.9208 20.5707 21.932 20.4451 21.9231C20.3356 21.9261 20.2273 21.9005 20.1308 21.8488C20.0343 21.797 19.9531 21.721 19.895 21.6281C19.777 21.4001 19.9421 21.2391 20.0501 21.0701C20.1828 20.8823 20.346 20.718 20.533 20.5841C20.9206 20.2681 21.2369 19.8735 21.4609 19.4264C21.685 18.9793 21.8118 18.4898 21.833 17.9901C21.8858 17.3489 21.8423 16.7034 21.7041 16.0751C21.6992 15.9886 21.6752 15.9042 21.6339 15.828C21.5926 15.7518 21.535 15.6857 21.4651 15.6343C21.3952 15.583 21.3149 15.5478 21.2298 15.5312C21.1448 15.5145 21.0571 15.5169 20.9731 15.5381C20.8817 15.5509 20.7941 15.5827 20.7158 15.6313C20.6375 15.6799 20.5702 15.7444 20.5182 15.8206C20.4662 15.8967 20.4307 15.9829 20.414 16.0736C20.3973 16.1642 20.3997 16.2574 20.421 16.3471C20.5298 16.8392 20.5698 17.344 20.54 17.8471C20.5212 18.2264 20.4168 18.5966 20.2349 18.9299C20.0529 19.2632 19.7979 19.5511 19.489 19.7721C19.3856 19.8419 19.2627 19.8769 19.138 19.8721C17.591 19.9551 16.045 19.9271 14.498 19.8721C14.3905 19.8721 14.2841 19.8504 14.1851 19.8083C14.0861 19.7662 13.9967 19.7046 13.922 19.6271C13.3919 19.0615 13.0766 18.328 13.031 17.5541C12.9677 17.1574 12.9827 16.7521 13.0751 16.3611C13.1094 16.2805 13.125 16.1931 13.1207 16.1056C13.1165 16.018 13.0925 15.9326 13.0506 15.8556C13.0086 15.7787 12.9498 15.7122 12.8786 15.6612C12.8073 15.6102 12.7254 15.576 12.639 15.5611C12.5536 15.5347 12.4638 15.5257 12.3748 15.5348C12.2859 15.544 12.1997 15.5709 12.1215 15.6142C12.0432 15.6574 11.9745 15.716 11.9194 15.7865C11.8644 15.8569 11.8241 15.9377 11.8011 16.0241C11.6522 16.6151 11.6341 17.2314 11.748 17.8301C11.7954 18.426 11.9664 19.0056 12.2499 19.5319C12.5335 20.0582 12.9234 20.5197 13.3951 20.8871C13.5709 21.0182 13.7125 21.1897 13.8081 21.3871C13.8456 21.4391 13.8698 21.4995 13.8785 21.5631C13.8871 21.6267 13.8799 21.6914 13.8576 21.7515C13.8352 21.8117 13.7984 21.8653 13.7503 21.9078C13.7023 21.9503 13.6445 21.9803 13.5821 21.9951C13.4039 22.0606 13.2129 22.0838 13.0243 22.0628C12.8356 22.0418 12.6544 21.9772 12.495 21.8741C11.6274 21.3478 10.9283 20.5845 10.48 19.6741C9.96581 18.7727 9.63615 17.7779 9.51031 16.7478C9.38446 15.7177 9.46494 14.6728 9.74705 13.6741C10.4297 14.1932 11.2093 14.5702 12.04 14.7831C12.8619 15.0075 13.7259 15.0295 14.5581 14.8474C15.3903 14.6652 16.1661 14.2843 16.819 13.7371C16.8528 13.6989 16.8942 13.668 16.9405 13.6466C16.9868 13.6251 17.0371 13.6135 17.0881 13.6125C17.1392 13.6114 17.1899 13.621 17.237 13.6406C17.2842 13.6601 17.3267 13.6893 17.362 13.7261C18.3183 14.4073 19.4387 14.8215 20.608 14.9261C21.7617 15.0197 22.9091 14.6819 23.8281 13.9781C23.9101 13.9191 23.9931 13.8631 24.0981 13.7891C24.3901 14.887 24.4145 16.0389 24.1691 17.1481ZM28.3691 17.6011C28.2945 17.7307 28.1949 17.8443 28.076 17.9351C27.1182 18.5568 26.0431 18.9754 24.9171 19.1651C25.2869 18.2685 25.5228 17.3224 25.617 16.3571C26.0093 16.5737 26.4358 16.7215 26.878 16.7941C27.1625 16.8356 27.4523 16.821 27.7311 16.7511C28.038 16.6511 28.1421 16.8741 28.2851 17.0341C28.363 17.1042 28.4141 17.1993 28.4294 17.303C28.4447 17.4067 28.4234 17.5125 28.3691 17.6021M28.069 12.3291C28.2959 13.0681 28.3174 13.8549 28.131 14.6051C27.961 15.2141 27.682 15.4951 27.206 15.5211C26.941 15.5207 26.6815 15.4446 26.4581 15.3018C26.2347 15.1591 26.0568 14.9555 25.9451 14.7151C25.7191 14.0311 25.5371 13.3331 25.3221 12.6451C25.2661 12.4631 25.377 12.3631 25.451 12.2451C25.8538 11.6537 26.0651 10.9528 26.0563 10.2374C26.0475 9.52194 25.8191 8.82646 25.402 8.24511C25.0525 7.74279 24.5618 7.35545 23.992 7.13211C23.9161 7.11302 23.8491 7.06823 23.8024 7.00534C23.7558 6.94244 23.7323 6.86533 23.736 6.78711C23.717 6.38711 23.66 5.98711 23.609 5.50411C25.597 7.52211 27.337 9.60411 28.068 12.3341M11.55 7.32411C11.5287 6.32444 11.716 5.33131 12.1 4.40811C12.472 3.56972 13.0713 2.85223 13.83 2.33687C14.5887 1.82151 15.4766 1.52888 16.393 1.49211C16.593 1.47111 16.806 1.49211 17.012 1.49211C17.8161 1.44567 18.6199 1.58933 19.3581 1.91144C20.0963 2.23355 20.7482 2.72505 21.261 3.34611C21.9427 4.23482 22.3385 5.30955 22.396 6.42811C22.431 6.79211 22.438 7.16011 22.4541 7.52811C22.4455 7.60885 22.4532 7.69048 22.4767 7.76821C22.5002 7.84593 22.5389 7.91818 22.5907 7.9807C22.6425 8.04321 22.7063 8.09474 22.7783 8.13225C22.8503 8.16976 22.9291 8.19249 23.01 8.19911C23.3697 8.2636 23.7065 8.41985 23.988 8.65273C24.2696 8.88561 24.4862 9.18723 24.6169 9.52838C24.7477 9.86954 24.7881 10.2387 24.7344 10.6C24.6806 10.9614 24.5344 11.3028 24.31 11.5911C23.7106 12.5689 22.7577 13.2783 21.649 13.5721C20.8087 13.7226 19.9422 13.6018 19.1751 13.2271C18.598 12.9714 18.0578 12.6395 17.569 12.2401C17.5012 12.1566 17.4144 12.0904 17.316 12.047C17.2175 12.0036 17.1101 11.9842 17.0027 11.9905C16.8952 11.9967 16.7908 12.0284 16.698 12.0829C16.6053 12.1375 16.5268 12.2133 16.469 12.3041C16.0259 12.774 15.4826 13.138 14.8794 13.3691C14.2763 13.6002 13.6289 13.6925 12.9852 13.6391C12.3415 13.5857 11.7181 13.388 11.1614 13.0606C10.6046 12.7332 10.1287 12.2846 9.76905 11.7481C9.54383 11.442 9.38716 11.091 9.30969 10.719C9.23221 10.347 9.23574 9.96265 9.32005 9.59211C9.40623 9.24375 9.5938 8.92879 9.85903 8.68706C10.1243 8.44533 10.4552 8.2877 10.81 8.23411C11.447 8.06911 11.532 7.96811 11.543 7.31911M10.406 5.51911C10.3261 5.93996 10.277 6.36609 10.2591 6.79411C10.2591 6.92711 10.239 7.02411 10.081 7.08011C7.98905 7.82411 7.47005 9.98011 8.38705 11.9461C8.48329 12.123 8.54106 12.3182 8.55657 12.519C8.57208 12.7198 8.54498 12.9215 8.47705 13.1111C8.30805 13.5961 8.17705 14.0961 8.02005 14.5851C7.92105 14.8679 7.72988 15.1092 7.47725 15.2702C7.22462 15.4313 6.92518 15.5027 6.62705 15.4731C6.47246 15.4574 6.32524 15.3991 6.20169 15.3049C6.07815 15.2106 5.98309 15.084 5.92705 14.9391C5.68173 14.3167 5.62368 13.6361 5.76005 12.9811C6.04311 11.2915 6.75942 9.70422 7.83905 8.37411C8.60364 7.34402 9.46342 6.38815 10.407 5.51911" fill="white"/>
<path d="M27.9431 31.8132C27.6591 29.7362 27.3321 27.6652 27.0371 25.5902C26.9981 25.3152 26.9121 25.3032 26.6681 25.3672C23.7497 26.1308 20.7512 26.5464 17.7351 26.6052C14.2126 26.6658 10.6983 26.2463 7.2891 25.3582C6.9981 25.2832 6.9421 25.3582 6.9071 25.6172C6.6391 27.5692 6.3571 29.5172 6.0881 31.4722C5.9634 32.0387 6.03263 32.6307 6.2847 33.1531C6.53677 33.6756 6.95706 34.0982 7.47811 34.3532C7.86276 34.5308 8.2688 34.6579 8.6861 34.7312C8.8651 34.7692 8.8971 34.6912 8.9161 34.5422C8.9701 34.1222 9.0391 33.7042 9.0971 33.2832C9.33377 31.5698 9.5671 29.8558 9.7971 28.1412C9.8241 27.9412 9.8851 27.8772 10.0971 27.9132C10.6611 28.0132 11.2301 28.0822 11.7971 28.1512C12.0131 28.1772 12.0671 28.2662 12.0501 28.4822C11.8711 30.6752 11.7091 32.8702 11.5261 35.0622C11.5031 35.3262 11.5601 35.4192 11.8261 35.4562C13.5493 35.7184 15.29 35.8495 17.0331 35.8482C18.6961 35.8662 20.3577 35.7471 22.0011 35.4922C23.3834 35.2872 24.746 34.9657 26.0741 34.5312C26.6586 34.3768 27.168 34.0174 27.5095 33.5186C27.8509 33.0198 28.0017 32.4149 27.9341 31.8142" fill="white"/>
</svg>
