<svg width="108" height="109" viewBox="0 0 108 109" fill="none" xmlns="http://www.w3.org/2000/svg">
<path d="M53.999 0.993166C43.4163 0.993166 33.0713 4.1313 24.2721 10.0107C15.4729 15.8901 8.61476 24.2468 4.56495 34.0239C0.515127 43.801 -0.54449 54.5595 1.52009 64.9389C3.58467 75.3182 8.68072 84.8522 16.1638 92.3353C23.6469 99.8184 33.1809 104.914 43.5603 106.979C53.9396 109.044 64.6981 107.984 74.4752 103.934C84.2523 99.8844 92.609 93.0262 98.4884 84.2271C104.368 75.4279 107.506 65.0828 107.506 54.5002C107.508 47.473 106.125 40.5143 103.437 34.0217C100.748 27.5291 96.8072 21.6299 91.8382 16.6609C86.8693 11.692 80.97 7.75072 74.4774 5.0624C67.9848 2.37407 61.0261 0.991327 53.999 0.993166ZM40.622 27.7472L80.752 54.5012L40.622 81.2542V27.7472Z" fill="white"/>
</svg>
