<svg width="47" height="59" viewBox="0 0 47 59" fill="none" xmlns="http://www.w3.org/2000/svg">
<path d="M23.373 38.698C35.93 38.698 46.526 40.738 46.526 48.611C46.526 56.484 35.86 58.454 23.373 58.454C10.82 58.454 0.219971 56.413 0.219971 48.541C0.219971 40.669 10.886 38.698 23.373 38.698ZM23.373 0.571037C26.4015 0.572422 29.3617 1.47177 31.8792 3.15538C34.3966 4.83899 36.3584 7.23126 37.5164 10.0297C38.6743 12.8282 38.9766 15.9071 38.3848 18.8773C37.793 21.8475 36.3339 24.5755 34.1918 26.7165C32.0497 28.8575 29.3209 30.3152 26.3504 30.9054C23.3799 31.4956 20.3011 31.1918 17.5032 30.0324C14.7054 28.8729 12.3142 26.9099 10.6319 24.3916C8.94958 21.8732 8.05177 18.9126 8.05197 15.884C8.04523 13.8705 8.43697 11.8756 9.20463 10.0142C9.9723 8.15276 11.1007 6.46163 12.5248 5.03824C13.949 3.61485 15.6407 2.48733 17.5025 1.72064C19.3643 0.953945 21.3595 0.563242 23.373 0.571037Z" fill="#003887"/>
</svg>
