<svg width="15" height="10" viewBox="0 0 15 10" fill="none" xmlns="http://www.w3.org/2000/svg">
<path d="M7.63707 9.12425C7.54951 9.07679 7.47636 9.0066 7.42533 8.92107C7.37429 8.83554 7.34726 8.73784 7.34707 8.63825V5.48525H1.11607C0.968477 5.48525 0.826929 5.42662 0.722565 5.32225C0.618201 5.21789 0.55957 5.07634 0.55957 4.92875C0.55957 4.78115 0.618201 4.63961 0.722565 4.53524C0.826929 4.43088 0.968477 4.37225 1.11607 4.37225H7.34707V1.21925C7.34715 1.11963 7.37414 1.02188 7.42519 0.936338C7.47623 0.850792 7.54944 0.780624 7.63707 0.733247C7.72652 0.684938 7.82709 0.660987 7.92871 0.663796C8.03033 0.666604 8.12943 0.696072 8.21607 0.749247L14.2421 4.45825C14.3232 4.50718 14.3904 4.57626 14.437 4.65879C14.4836 4.74131 14.5081 4.83447 14.5081 4.92925C14.5081 5.02402 14.4836 5.11718 14.437 5.19971C14.3904 5.28223 14.3232 5.35131 14.2421 5.40025L8.21507 9.10925C8.12843 9.16242 8.02933 9.19189 7.92771 9.1947C7.82609 9.19751 7.72552 9.17355 7.63607 9.12525" fill="#BABBCF"/>
</svg>
