<svg width="21" height="23" viewBox="0 0 21 23" fill="none" xmlns="http://www.w3.org/2000/svg">
<path d="M13.666 10.693V4.80098C13.6661 4.50299 13.6067 4.20798 13.4913 3.93323C13.3759 3.65849 13.2068 3.40954 12.994 3.20098L11.047 1.25198C10.9417 1.14634 10.8165 1.06252 10.6787 1.00533C10.5409 0.94814 10.3932 0.918701 10.244 0.918701C10.0948 0.918701 9.94708 0.94814 9.80929 1.00533C9.6715 1.06252 9.54634 1.14634 9.441 1.25198L7.5 3.18798C7.07298 3.6162 6.83313 4.19624 6.833 4.80098V6.13698H2.278C1.67432 6.13857 1.09583 6.37908 0.66896 6.80594C0.242095 7.23281 0.00158377 7.81131 0 8.41498V19.801C0.00105575 20.405 0.241334 20.984 0.668256 21.4113C1.09518 21.8386 1.67398 22.0794 2.278 22.081H18.221C18.8252 22.0797 19.4043 21.839 19.8314 21.4117C20.2585 20.9843 20.4989 20.4052 20.5 19.801V12.97C20.4984 12.3663 20.2579 11.7878 19.831 11.3609C19.4042 10.9341 18.8257 10.6936 18.222 10.692L13.666 10.693ZM4.555 19.801H2.278V17.526H4.555V19.801ZM4.555 15.246H2.278V12.97H4.555V15.246ZM4.555 10.691H2.278V8.41498H4.555V10.691ZM11.388 19.801H9.111V17.526H11.389L11.388 19.801ZM11.388 15.246H9.111V12.97H11.389L11.388 15.246ZM11.388 10.691H9.111V8.41498H11.389L11.388 10.691ZM11.388 6.13598H9.111V3.85998H11.389L11.388 6.13598ZM18.221 19.801H15.944V17.526H18.222L18.221 19.801ZM18.221 15.246H15.944V12.97H18.222L18.221 15.246Z" fill="#4BA5FF"/>
</svg>
