<svg width="23" height="20" viewBox="0 0 23 20" fill="none" xmlns="http://www.w3.org/2000/svg">
<path d="M13.0939 1.19094C12.8063 1.47877 12.6447 1.86903 12.6447 2.27594C12.6447 2.68284 12.8063 3.0731 13.0939 3.36094L18.1469 8.41594L2.16293 8.42694C1.96135 8.42694 1.76175 8.46664 1.57551 8.54378C1.38928 8.62092 1.22006 8.73399 1.07752 8.87653C0.934983 9.01907 0.821915 9.18828 0.744774 9.37452C0.667633 9.56075 0.62793 9.76036 0.62793 9.96194C0.62793 10.1635 0.667633 10.3631 0.744774 10.5494C0.821915 10.7356 0.934983 10.9048 1.07752 11.0473C1.22006 11.1899 1.38928 11.3029 1.57551 11.3801C1.76175 11.4572 1.96135 11.4969 2.16293 11.4969L18.1479 11.4859L13.0939 16.5409C12.9514 16.6835 12.8383 16.8527 12.7612 17.039C12.684 17.2252 12.6443 17.4248 12.6443 17.6264C12.6443 17.828 12.684 18.0277 12.7612 18.2139C12.8383 18.4002 12.9514 18.5694 13.0939 18.7119C13.2365 18.8545 13.4057 18.9676 13.592 19.0447C13.7782 19.1219 13.9778 19.1616 14.1794 19.1616C14.381 19.1616 14.5806 19.1219 14.7669 19.0447C14.9531 18.9676 15.1224 18.8545 15.2649 18.7119L20.7649 13.2119C21.1932 12.7846 21.533 12.2771 21.7649 11.7183C21.9967 11.1595 22.1161 10.5604 22.1161 9.95544C22.1161 9.35045 21.9967 8.7514 21.7649 8.1926C21.533 7.6338 21.1932 7.12623 20.7649 6.69894L15.2649 1.19894C15.1229 1.05584 14.9541 0.94213 14.7681 0.864285C14.5822 0.786441 14.3827 0.745993 14.1811 0.74525C13.9795 0.744507 13.7797 0.783484 13.5932 0.859956C13.4066 0.936427 13.237 1.04889 13.0939 1.19094Z" fill="#003887"/>
</svg>
