<svg width="21" height="24" viewBox="0 0 21 24" fill="none" xmlns="http://www.w3.org/2000/svg">
<path d="M14.1809 0.857111C14.2926 0.855882 14.4034 0.877114 14.5068 0.919547C14.6101 0.961979 14.7039 1.02475 14.7825 1.10412C14.8612 1.1835 14.923 1.27787 14.9645 1.38162C15.006 1.48538 15.0261 1.5964 15.0239 1.70811V2.53811C15.7215 2.55465 16.4088 2.71146 17.0446 2.9992C17.6804 3.28694 18.2518 3.69972 18.7247 4.21294C19.1976 4.72617 19.5623 5.32933 19.7972 5.9865C20.0321 6.64367 20.1323 7.3414 20.0919 8.03811L20.1039 17.3661C20.1039 20.8411 17.9249 22.9791 14.4259 22.9841L5.88086 23.0001C5.1205 23.0591 4.35636 22.9531 3.64078 22.6894C2.92519 22.4256 2.27506 22.0103 1.73488 21.472C1.19471 20.9336 0.777255 20.2848 0.511105 19.5701C0.244956 18.8554 0.136396 18.0917 0.192858 17.3311L0.180858 8.11211C0.13084 7.41667 0.221405 6.71828 0.447153 6.05861C0.6729 5.39893 1.0292 4.79148 1.49481 4.27249C1.96041 3.7535 2.52578 3.33361 3.15718 3.03787C3.78859 2.74212 4.47309 2.57658 5.16986 2.55111V1.72111C5.16596 1.60816 5.18485 1.49559 5.22538 1.39009C5.26592 1.2846 5.32728 1.18834 5.4058 1.10706C5.48433 1.02578 5.57841 0.961143 5.68245 0.916996C5.78648 0.872849 5.89834 0.850098 6.01136 0.850098C6.12437 0.850098 6.23623 0.872849 6.34027 0.916996C6.4443 0.961143 6.53839 1.02578 6.61691 1.10706C6.69544 1.18834 6.7568 1.2846 6.79733 1.39009C6.83787 1.49559 6.85675 1.60816 6.85286 1.72111V2.49611L13.3459 2.48711V1.71011C13.3423 1.59866 13.3614 1.48766 13.4019 1.38376C13.4424 1.27987 13.5035 1.18524 13.5815 1.10556C13.6595 1.02588 13.7528 0.962793 13.8558 0.920098C13.9588 0.877402 14.0694 0.855977 14.1809 0.857111ZM14.6269 16.5691H14.6209C14.3765 16.5749 14.1444 16.6775 13.9756 16.8543C13.8069 17.0311 13.7152 17.2677 13.7209 17.5121C13.7258 17.693 13.7841 17.8685 13.8885 18.0163C13.9928 18.1642 14.1386 18.2779 14.3074 18.3432C14.4762 18.4085 14.6605 18.4224 14.8372 18.3833C15.0139 18.3441 15.1751 18.2536 15.3005 18.123C15.4259 17.9925 15.5099 17.8279 15.542 17.6497C15.5741 17.4716 15.5528 17.288 15.4808 17.1219C15.4088 16.9559 15.2893 16.8148 15.1374 16.7164C14.9855 16.6181 14.8078 16.5668 14.6269 16.5691ZM5.61986 16.5691C5.37572 16.5807 5.14558 16.6865 4.97777 16.8642C4.80995 17.0419 4.71751 17.2777 4.71986 17.5221C4.7302 17.6975 4.79165 17.866 4.89662 18.0069C5.00159 18.1477 5.14549 18.2548 5.31059 18.3149C5.47568 18.3749 5.65474 18.3854 5.82569 18.3449C5.99664 18.3044 6.15201 18.2148 6.27263 18.0871C6.39325 17.9593 6.47385 17.7991 6.5045 17.6261C6.53514 17.4531 6.51449 17.2749 6.44509 17.1136C6.37568 16.9522 6.26057 16.8146 6.11393 16.7179C5.96729 16.6211 5.79554 16.5694 5.61986 16.5691ZM10.1199 16.5631C9.87581 16.575 9.64581 16.6808 9.47805 16.8585C9.31028 17.0361 9.21776 17.2718 9.21986 17.5161C9.2302 17.6915 9.29165 17.86 9.39662 18.0009C9.50159 18.1417 9.64549 18.2488 9.81058 18.3089C9.97568 18.3689 10.1547 18.3794 10.3257 18.3389C10.4966 18.2984 10.652 18.2088 10.7726 18.0811C10.8932 17.9533 10.9739 17.7931 11.0045 17.6201C11.0351 17.4471 11.0145 17.2689 10.9451 17.1076C10.8757 16.9462 10.7606 16.8086 10.6139 16.7119C10.4673 16.6151 10.2955 16.5634 10.1199 16.5631ZM5.61886 12.5871C5.3757 12.6 5.14692 12.7063 4.98032 12.8839C4.81372 13.0615 4.7222 13.2966 4.72486 13.5401C4.73522 13.7157 4.79683 13.8845 4.90207 14.0255C5.00731 14.1665 5.15157 14.2735 5.317 14.3334C5.48243 14.3933 5.66179 14.4033 5.83288 14.3624C6.00398 14.3214 6.15932 14.2312 6.27969 14.1029C6.40005 13.9745 6.48018 13.8138 6.51014 13.6404C6.54011 13.467 6.51861 13.2887 6.4483 13.1274C6.37799 12.9661 6.26195 12.829 6.11453 12.733C5.96712 12.637 5.79479 12.5862 5.61886 12.5871ZM10.1189 12.5481C9.87472 12.5597 9.64458 12.6655 9.47677 12.8432C9.30895 13.0209 9.21651 13.2567 9.21886 13.5011C9.2292 13.6765 9.29065 13.845 9.39562 13.9859C9.50059 14.1267 9.64449 14.2338 9.80958 14.2939C9.97468 14.3539 10.1537 14.3644 10.3247 14.3239C10.4956 14.2834 10.651 14.1938 10.7716 14.0661C10.8922 13.9383 10.9729 13.7781 11.0035 13.6051C11.0341 13.4321 11.0135 13.2539 10.9441 13.0926C10.8747 12.9312 10.7596 12.7936 10.6129 12.6969C10.4663 12.6001 10.2945 12.5484 10.1189 12.5481ZM14.6189 12.5541C14.3763 12.5586 14.1455 12.659 13.9768 12.8333C13.8081 13.0076 13.7154 13.2416 13.7189 13.4841V13.4961C13.7209 13.6155 13.7467 13.7333 13.7948 13.8427C13.8428 13.952 13.9121 14.0507 13.9987 14.1329C14.0852 14.2152 14.1873 14.2794 14.2989 14.3219C14.4105 14.3643 14.5295 14.3841 14.6489 14.3801C14.891 14.3755 15.1214 14.2748 15.2893 14.1003C15.4573 13.9258 15.549 13.6918 15.5444 13.4496C15.5397 13.2075 15.4391 12.9771 15.2646 12.8091C15.0901 12.6412 14.856 12.5495 14.6139 12.5541H14.6189ZM13.3489 4.18911L6.85586 4.19811V5.09811C6.85975 5.21106 6.84087 5.32363 6.80033 5.42913C6.7598 5.53463 6.69844 5.63088 6.61991 5.71216C6.54139 5.79344 6.4473 5.85808 6.34327 5.90223C6.23923 5.94637 6.12737 5.96912 6.01436 5.96912C5.90134 5.96912 5.78948 5.94637 5.68545 5.90223C5.58141 5.85808 5.48733 5.79344 5.4088 5.71216C5.33028 5.63088 5.26892 5.53463 5.22838 5.42913C5.18785 5.32363 5.16896 5.21106 5.17286 5.09811V4.24311C3.04086 4.45711 1.86086 5.70911 1.86386 8.11011V8.45711L18.4139 8.43511V8.04411C18.3669 5.66511 17.1729 4.41711 15.0309 4.23111V5.08311C15.0348 5.19606 15.0159 5.30863 14.9753 5.41413C14.9348 5.51963 14.8734 5.61588 14.7949 5.69716C14.7164 5.77844 14.6223 5.84308 14.5183 5.88723C14.4142 5.93137 14.3024 5.95412 14.1894 5.95412C14.0763 5.95412 13.9645 5.93137 13.8604 5.88723C13.7564 5.84308 13.6623 5.77844 13.5838 5.69716C13.5053 5.61588 13.4439 5.51963 13.4034 5.41413C13.3628 5.30863 13.344 5.19606 13.3479 5.08311L13.3489 4.18911Z" fill="#BABBCF"/>
</svg>
