<svg width="497" height="497" viewBox="0 0 497 497" fill="none" xmlns="http://www.w3.org/2000/svg">
<path d="M354.231 450.691C398.448 403.897 403.304 234.481 309.05 247.617C259.436 254.532 166.409 235.381 103.745 214.001C42.8133 193.213 79.7563 351.715 148.926 417.075C218.096 482.435 310.011 497.486 354.231 450.691Z" fill="#EFEDEF"/>
<path d="M365.938 463.74C342.353 488.701 305.838 498.597 263.11 491.601C220.465 484.619 176.726 461.635 139.949 426.884C112.299 400.757 86.2891 357.372 70.3731 310.833C55.1731 266.374 52.126 228.146 62.432 211.067C68.192 201.521 78.05 198.801 90.941 203.199L90.5851 204.24C78.0681 199.97 68.912 202.458 63.374 211.64C53.231 228.448 56.3121 266.322 71.4141 310.482C87.2741 356.862 113.176 400.082 140.704 426.09C177.323 460.69 220.857 483.574 263.286 490.521C305.638 497.456 341.81 487.677 365.14 462.988L365.938 463.74Z" fill="#EFEDEF"/>
<path fill-rule="evenodd" clip-rule="evenodd" d="M302.176 78.571H336.54C338.78 78.4988 340.905 77.5652 342.474 75.9648C344.042 74.3644 344.932 72.2206 344.959 69.98C344.989 67.9384 344.272 65.9562 342.943 64.4059C341.614 62.8556 339.765 61.844 337.743 61.561V61.389C337.744 59.1736 337.03 57.0171 335.707 55.2396C334.385 53.4621 332.525 52.1583 330.403 51.5217C328.281 50.8851 326.01 50.9497 323.928 51.7058C321.845 52.4619 320.062 53.8692 318.843 55.719C317.678 54.9161 316.317 54.4459 314.905 54.3588C313.493 54.2718 312.084 54.5712 310.829 55.2249C309.575 55.8786 308.522 56.8618 307.785 58.0689C307.047 59.2761 306.652 60.6614 306.643 62.076V62.42C305.335 61.6623 303.855 61.2493 302.343 61.22C300.065 61.22 297.88 62.1251 296.268 63.7362C294.657 65.3473 293.752 67.5325 293.752 69.811C293.752 72.0895 294.657 74.2746 296.268 75.8857C297.88 77.4969 300.065 78.402 302.343 78.402L302.176 78.571ZM302.176 78.571L422.427 150.571H460.564C465.712 150.36 469.908 145.712 469.908 140.008C469.908 134.727 466.476 130.29 461.899 129.656V129.44C461.899 122.468 456.751 116.765 450.458 116.765C448.513 116.817 446.615 117.368 444.945 118.367C443.275 119.365 441.89 120.776 440.924 122.465C439.51 121.357 437.762 120.761 435.966 120.775C431.199 120.775 427.385 125 427.385 130.282V130.705C425.963 129.782 424.313 129.27 422.618 129.226C417.47 129.226 413.084 133.874 413.084 139.789C413.084 145.489 417.284 150.352 422.618 150.352L302.176 78.571ZM302.176 78.571L34.8762 43.065H83.4642C90.0232 42.796 95.3642 36.875 95.3642 29.607C95.3642 22.878 90.9912 17.226 85.1642 16.419V16.15C85.1642 7.26798 78.6052 0.000976562 70.5882 0.000976562C65.4882 0.000976562 61.1132 2.96198 58.4412 7.26798C56.6401 5.85639 54.4135 5.09739 52.1252 5.11498C46.0522 5.11498 41.1932 10.498 41.1932 17.227V17.765C39.3809 16.5889 37.2788 15.9369 35.1192 15.881C28.5602 15.881 22.9722 21.802 22.9722 29.338C22.9722 36.605 28.3172 42.796 35.1192 42.796L302.176 78.571Z" fill="#FFE3CB"/>
<path d="M1.57715 497H495.42C495.685 497 495.94 496.895 496.127 496.707C496.315 496.52 496.42 496.265 496.42 496C496.42 495.735 496.315 495.48 496.127 495.293C495.94 495.105 495.685 495 495.42 495H1.57715C1.31193 495 1.05758 495.105 0.870041 495.293C0.682505 495.48 0.577148 495.735 0.577148 496C0.577148 496.265 0.682505 496.52 0.870041 496.707C1.05758 496.895 1.31193 497 1.57715 497Z" fill="#935B50"/>
<path d="M403.624 198.308C402.697 195.222 401.704 192.158 400.743 189.083L397.751 179.896C396.756 176.833 395.702 173.79 394.68 170.736L391.575 161.588L391.121 160.252L390.59 161.552C388.384 166.969 386.115 172.361 383.96 177.8C381.786 183.231 379.634 188.671 377.578 194.151C380.021 188.832 382.369 183.473 384.694 178.106C387.039 172.746 389.269 167.339 391.562 161.957L390.577 161.926L393.745 171.052C394.814 174.09 395.851 177.138 396.945 180.167L400.227 189.254C401.362 192.275 402.46 195.303 403.624 198.308Z" fill="#1E1D22"/>
<path d="M412.756 178.896L410.536 203.133L410.452 204.049L410.442 204.165L410.354 204.157L409.38 204.068L368.018 200.28L367.043 200.19L366.956 200.182L366.966 200.065L367.05 199.15L369.27 174.913L369.354 173.997L370.572 174.109L411.622 177.869L412.84 177.98L412.756 178.896Z" fill="#F73C4F"/>
<path d="M369.354 173.997L369.27 174.913L384.302 188.513L367.05 199.153L366.966 200.068L367.043 200.193L368.018 200.283L385.436 189.535L389.518 193.229L394.203 190.338L409.38 204.071L410.354 204.16L410.454 204.052L410.538 203.136L395.508 189.54L412.759 178.9L412.843 177.984L411.625 177.873L389.685 191.4L370.572 174.109L369.354 173.997Z" fill="#E5E1E5"/>
<path d="M390.863 157.452C391.361 159.357 391.585 161.322 391.529 163.29C391.529 163.29 388.973 158.417 384.008 158.39C382.145 158.598 380.314 159.037 378.558 159.695C376.729 160.575 366.243 164.329 359.733 164.233L357.774 164.313C357.774 164.313 354.625 184.747 349.132 182.574C349.132 182.574 345.174 186.406 343.006 185.085C342.418 185.493 341.806 185.868 341.175 186.206C340.757 186.432 340.282 186.53 339.808 186.485C339.335 186.441 338.886 186.257 338.517 185.958C338.149 185.658 337.877 185.255 337.738 184.801C337.598 184.347 337.597 183.861 337.733 183.406C339.774 176.591 344.976 162.568 355.022 154.525C355.022 154.525 351.947 150.425 352.06 147.63C352.06 147.63 348.792 142.604 349.616 138.854C348.702 137.426 348.094 135.823 347.832 134.147C347.57 132.472 347.658 130.76 348.092 129.121C346.613 125.576 346.542 121.601 347.892 118.006C346.799 113.906 347.319 109.544 349.345 105.816C349.232 102.168 349.887 98.5363 351.266 95.1569C351.457 94.7247 351.756 94.3493 352.135 94.0675C352.514 93.7858 352.96 93.6073 353.429 93.5495C353.898 93.4918 354.373 93.5567 354.81 93.7381C355.246 93.9194 355.627 94.2108 355.917 94.5839C363.196 103.999 369.241 114.307 373.903 125.257C374.411 126.484 374.55 127.832 374.303 129.137C373.53 133.204 372.388 142.708 377.903 145.396C379.459 146.014 381.131 146.287 382.803 146.196C387.403 146.065 391.354 149.082 391.97 152.13C392.144 153.046 392.136 153.988 391.946 154.901C391.756 155.814 391.388 156.681 390.863 157.452Z" fill="#FFBA55"/>
<path d="M391.53 163.29C390.523 161.489 388.998 160.031 387.153 159.106C387.153 159.106 388.61 155.793 390.864 157.452C391.42 159.346 391.645 161.321 391.53 163.29Z" fill="#F73C4F"/>
<path d="M388.43 153.971C388.266 153.976 388.104 153.932 387.965 153.844C387.826 153.757 387.716 153.629 387.65 153.479C387.584 153.329 387.564 153.162 387.593 153C387.622 152.839 387.699 152.689 387.813 152.572C387.928 152.454 388.075 152.373 388.235 152.339C388.396 152.305 388.563 152.32 388.715 152.382C388.868 152.444 388.998 152.55 389.09 152.686C389.181 152.822 389.23 152.983 389.23 153.147C389.23 153.361 389.146 153.567 388.997 153.721C388.848 153.875 388.644 153.964 388.43 153.971Z" fill="#1E1D22"/>
<path d="M390.864 157.452C390.64 157.168 390.318 156.977 389.961 156.918C389.604 156.858 389.238 156.934 388.934 157.13C389.292 157.205 389.593 157.204 389.9 157.279C390.214 157.311 390.506 157.403 390.864 157.452Z" fill="#B02336"/>
<path d="M367.613 149.004C366.437 149.003 365.264 149.147 364.123 149.433C362.979 149.704 361.861 150.075 360.781 150.54C359.696 151.001 358.658 151.566 357.681 152.226C356.698 152.874 355.803 153.647 355.019 154.526C356.079 154.005 357.067 153.437 358.102 152.947C359.137 152.457 360.151 151.957 361.202 151.522C363.29 150.608 365.421 149.831 367.613 149.004ZM357.773 164.312C356.793 164.194 355.801 164.216 354.827 164.378C353.852 164.525 352.895 164.769 351.968 165.106C350.091 165.748 348.401 166.841 347.045 168.289C347.967 167.917 348.815 167.495 349.698 167.141C350.581 166.787 351.443 166.421 352.334 166.112C354.106 165.452 355.906 164.915 357.773 164.312ZM349.131 182.572C349.332 182.61 349.54 182.594 349.733 182.526C349.926 182.457 350.098 182.34 350.231 182.184C350.361 182.028 350.448 181.841 350.485 181.642C350.521 181.442 350.506 181.237 350.44 181.045C350.247 181.04 350.055 181.078 349.877 181.155C349.7 181.233 349.541 181.348 349.413 181.493C349.295 181.644 349.209 181.818 349.161 182.003C349.113 182.189 349.104 182.383 349.135 182.572H349.131ZM343.005 185.083C343.198 185.127 343.4 185.122 343.59 185.067C343.781 185.013 343.954 184.911 344.095 184.772C344.234 184.628 344.332 184.45 344.38 184.256C344.428 184.061 344.424 183.858 344.368 183.666C344.179 183.646 343.988 183.668 343.808 183.73C343.629 183.792 343.465 183.893 343.328 184.025C343.199 184.166 343.103 184.334 343.047 184.517C342.992 184.701 342.978 184.894 343.006 185.083H343.005ZM352.06 147.63C352.22 148.202 352.579 148.698 353.072 149.03C353.569 149.38 354.152 149.587 354.758 149.63C355.333 149.673 355.911 149.6 356.457 149.416C357.003 149.233 357.508 148.942 357.94 148.561C356.793 148.53 355.799 148.65 354.84 148.561C353.85 148.49 352.894 148.17 352.06 147.63ZM349.616 138.854C349.832 139.228 350.134 139.544 350.498 139.775C350.862 140.007 351.276 140.148 351.706 140.185C352.492 140.359 353.286 140.471 354.081 140.571C355.678 140.775 357.294 140.775 358.89 140.571C357.372 140.02 355.791 139.662 354.183 139.504C353.392 139.426 352.601 139.36 351.801 139.356C351.426 139.372 351.051 139.347 350.681 139.283C350.298 139.222 349.935 139.075 349.616 138.854ZM348.091 129.121C348.403 129.596 348.832 129.982 349.337 130.242C349.845 130.478 350.38 130.652 350.929 130.762C351.962 131.034 352.994 131.286 354.015 131.568C355.04 131.832 356.052 132.132 357.054 132.456C358.069 132.781 359.057 133.185 360.008 133.665C359.279 132.827 358.382 132.152 357.375 131.684C356.389 131.198 355.356 130.812 354.293 130.533C353.238 130.255 352.163 130.057 351.077 129.941C350.557 129.914 350.039 129.851 349.527 129.753C349.015 129.628 348.529 129.414 348.092 129.119L348.091 129.121ZM347.891 118.007C348.138 118.696 348.585 119.295 349.176 119.726C349.48 119.941 349.81 120.118 350.158 120.251L351.122 120.64L354.959 122.21C356.236 122.731 357.498 123.281 358.759 123.844C360.009 124.423 361.259 125.002 362.499 125.67C360.432 123.741 358.012 122.231 355.372 121.221C354.074 120.686 352.745 120.229 351.393 119.852C351.054 119.762 350.717 119.664 350.375 119.586C350.055 119.52 349.744 119.417 349.448 119.278C348.831 118.993 348.296 118.556 347.894 118.007H347.891ZM349.343 105.817C349.627 106.737 350.217 107.531 351.015 108.069L353.415 109.449C354.977 110.389 356.515 111.358 357.976 112.436C360.961 114.528 363.596 117.079 365.784 119.995C365.044 118.278 364.025 116.696 362.768 115.312C361.519 113.918 360.123 112.663 358.605 111.569C357.092 110.479 355.486 109.524 353.805 108.715C352.985 108.305 352.074 107.956 351.274 107.615C350.46 107.228 349.784 106.599 349.339 105.815L349.343 105.817Z" fill="#E6952A"/>
<path d="M223.916 223.998C223.916 223.998 229.848 272.366 244.034 308.098C258.22 343.83 254.353 375.11 254.353 375.11C254.353 375.11 244.711 370.773 239.011 373.01C233.311 375.247 221.829 373.787 221.829 373.787C221.829 373.787 221.603 331.087 215.793 313.193C209.983 295.299 202.593 225.534 213.893 220.624C217.167 221.936 220.512 223.063 223.912 224.001L223.916 223.998Z" fill="#F73C4F"/>
<path d="M164.244 471.225V486.469L180.236 487.882L180.888 475.982L164.244 471.225Z" fill="#F9977A"/>
<path d="M220.766 471.225V486.469H238.639L236.739 475.788L220.766 471.225Z" fill="#F9977A"/>
<path d="M182.494 303.275C182.494 303.275 175.489 327.975 177.455 391.633C177.455 391.633 163.2 422.605 162.462 476.187H181.388L202.034 396.552L207.687 371.482L213.832 394.095C213.832 394.095 211.866 447.923 220.1 476.188H238.657L241.606 385.488L235.4 305.853L182.494 303.275Z" fill="#F73C4F"/>
<path d="M220.894 396.625C221.891 396.637 222.883 396.495 223.836 396.205C224.482 396.042 225.086 395.741 225.604 395.322C226.122 394.903 226.542 394.376 226.836 393.778L227.489 392.035L226.05 393.216C225.266 393.779 224.338 394.109 223.374 394.167C222.369 394.263 221.358 394.276 220.35 394.206C219.321 394.122 218.265 394.029 217.196 393.9L216.517 393.822C215.659 393.722 214.772 393.617 213.845 393.593L211.962 393.545L213.573 394.521C215.587 395.73 217.859 396.444 220.202 396.606C220.438 396.619 220.669 396.625 220.894 396.625ZM224.002 395.082C223.832 395.151 223.672 395.208 223.534 395.252C222.475 395.566 221.368 395.687 220.266 395.609C219 395.515 217.751 395.254 216.553 394.833L217.08 394.894C218.158 395.024 219.226 395.119 220.286 395.204C221.358 395.278 222.433 395.263 223.502 395.159C223.668 395.136 223.835 395.112 224.002 395.083V395.082ZM184.517 394.788C185.514 394.8 186.506 394.658 187.459 394.368C188.11 394.215 188.717 393.918 189.237 393.498C189.756 393.077 190.174 392.545 190.459 391.941L191.112 390.198L189.673 391.379C188.887 391.939 187.96 392.268 186.997 392.33C185.992 392.425 184.981 392.438 183.973 392.369C182.944 392.285 181.888 392.192 180.819 392.063L180.14 391.985C179.282 391.885 178.395 391.785 177.468 391.756L175.585 391.708L177.196 392.684C179.21 393.893 181.482 394.607 183.825 394.769C184.058 394.782 184.288 394.788 184.516 394.788H184.517ZM187.623 393.246C187.454 393.315 187.295 393.371 187.156 393.415C186.097 393.73 184.99 393.851 183.888 393.772C182.622 393.678 181.373 393.417 180.175 392.996L180.702 393.057C181.78 393.187 182.848 393.282 183.908 393.367C184.98 393.442 186.055 393.427 187.124 393.322C187.29 393.3 187.456 393.275 187.624 393.247L187.623 393.246Z" fill="#B02336"/>
<path d="M194.168 322.324C194.708 326.584 195.409 330.806 196.159 335.011C196.937 339.211 197.813 343.389 198.85 347.524C199.887 351.659 201.137 355.732 202.533 359.758C203.999 363.772 205.72 367.687 207.686 371.481C205.232 367.935 203.161 364.138 201.509 360.154C199.895 356.153 198.552 352.048 197.487 347.867C196.456 343.685 195.652 339.45 195.079 335.181C194.489 330.921 194.185 326.625 194.168 322.324Z" fill="#5E7C24"/>
<path d="M189.989 336.334C191.412 338.149 192.562 340.028 193.813 341.834C194.429 342.734 195.041 343.64 195.713 344.488C196.38 345.369 197.135 346.18 197.967 346.908C196.821 346.634 195.769 346.06 194.917 345.245C194.049 344.475 193.286 343.594 192.647 342.625C192.004 341.677 191.453 340.67 191.001 339.617C190.528 338.57 190.188 337.469 189.986 336.339L189.989 336.334Z" fill="#5E7C24"/>
<path d="M164.244 496H200.765C201.159 496 201.548 495.918 201.908 495.758C202.268 495.598 202.591 495.365 202.854 495.073C203.118 494.78 203.318 494.436 203.44 494.062C203.563 493.688 203.605 493.292 203.565 492.9C203.565 492.9 203.973 489.212 203.001 488.824L180.685 479.909C180.685 479.909 171.409 491.218 164.245 481.791C164.244 481.795 158.243 492.488 164.244 496ZM220.766 496H257.287C257.681 496 258.07 495.918 258.43 495.758C258.79 495.598 259.113 495.365 259.376 495.073C259.64 494.78 259.84 494.436 259.962 494.062C260.085 493.688 260.127 493.292 260.087 492.9C260.087 492.9 260.495 489.212 259.523 488.824L237.207 479.909C237.207 479.909 227.931 491.218 220.767 481.791C220.766 481.795 214.765 492.488 220.766 496Z" fill="#D6694B"/>
<path d="M286.461 169.987C286.461 169.987 285.44 166.412 289.04 159.043C292.64 151.674 296.258 146.259 294.973 151.896L293.923 156.175C293.923 156.175 299.023 151.997 301.844 149.241C302.581 148.498 303.536 148.012 304.57 147.853C305.604 147.695 306.662 147.872 307.587 148.36C309.301 149.312 309.752 150.818 307.125 154.612C303.197 160.287 300.96 163.173 299.58 164.291C299.102 164.678 293.592 168.447 293.592 168.447L286.461 169.987Z" fill="#F9977A"/>
<path d="M291.045 158.94C291.205 158.25 291.566 157.624 292.082 157.14C292.576 156.628 293.221 156.288 293.922 156.168C293.703 156.825 293.325 157.419 292.822 157.895C292.333 158.392 291.721 158.751 291.049 158.937L291.045 158.94ZM298.762 155.216C299.669 153.848 300.683 152.554 301.794 151.347C302.883 150.139 303.97 148.988 305.148 147.791C304.916 148.601 304.559 149.369 304.09 150.069C303.64 150.768 303.135 151.43 302.58 152.048C302.028 152.664 301.434 153.241 300.804 153.777C300.176 154.328 299.491 154.811 298.762 155.219V155.216ZM300.801 156.54C301.907 155.073 303.131 153.796 304.308 152.482C304.908 151.84 305.484 151.182 306.05 150.513C306.635 149.848 307.15 149.125 307.587 148.355C307.53 149.29 307.234 150.194 306.727 150.981C306.262 151.774 305.712 152.515 305.088 153.191C304.473 153.862 303.806 154.484 303.093 155.051C302.386 155.629 301.617 156.129 300.801 156.54ZM302.993 157.316C303.876 156.108 304.837 154.958 305.869 153.874L307.384 152.268C307.893 151.732 308.399 151.195 308.971 150.662C308.519 152.138 307.721 153.484 306.643 154.589C305.618 155.731 304.378 156.659 302.993 157.32V157.316Z" fill="#DD765E"/>
<path d="M233.447 214.478L259.786 194.451C262.019 193.358 263.978 191.778 265.518 189.827L288.003 161.349L294.471 167.829L281.78 195.48C279.164 201.179 275.025 206.044 269.819 209.54L244.419 226.597L233.447 214.478ZM243.738 172.978C243.738 172.978 242.755 169.392 246.438 162.062C250.121 154.732 253.793 149.356 252.448 154.979L251.348 159.247C251.348 159.247 256.493 155.124 259.348 152.399C260.093 151.664 261.053 151.188 262.089 151.04C263.125 150.893 264.18 151.082 265.1 151.579C266.8 152.549 267.238 154.06 264.571 157.826C260.582 163.459 258.314 166.321 256.922 167.426C256.44 167.808 250.89 171.518 250.89 171.518L243.738 172.978Z" fill="#F9977A"/>
<path d="M207.61 227.147L219.726 202.24C220.621 199.921 224.579 196.726 226.388 195.022L252.803 170.146L245.785 164.266L219.342 179.313C213.892 182.414 209.405 186.961 206.375 192.451L196.626 216.387L207.61 227.147Z" fill="#F9977A"/>
<path d="M256.986 164.269C256.725 163.732 256.352 163.257 255.893 162.875C255.44 162.483 254.928 162.165 254.375 161.934C253.814 161.701 253.213 161.577 252.605 161.568C251.999 161.551 251.399 161.694 250.865 161.981C251.459 162.114 251.987 162.181 252.503 162.342C253.012 162.482 253.51 162.655 253.996 162.859C254.98 163.253 255.912 163.761 256.986 164.269Z" fill="#DD765E"/>
<path d="M196.627 216.389C196.092 215.676 202.772 213.689 203.018 207.295C203.386 197.731 199.331 184.314 199.331 184.314H228.21C228.481 186.723 228.481 189.156 228.21 191.565C227.803 194.005 231.339 202.618 224.459 211.818C223.872 212.603 222.714 212.705 221.738 212.805C220.179 212.965 217.814 213.98 219.362 218.97C219.36 218.97 206.212 229.17 196.627 216.389Z" fill="#F9977A"/>
<path d="M189.479 218.821L196.628 216.39C200.021 218.401 203.8 219.671 207.719 220.116C211.638 220.561 215.606 220.171 219.363 218.971L243.214 206.571L251.614 225.483L236.691 239.574C234.905 241.261 233.516 243.324 232.626 245.614C231.736 247.904 231.367 250.363 231.545 252.813L241.608 385.491C241.608 385.491 183.261 396.982 172.569 382.972C172.569 382.972 184.708 271.572 181.39 258.296C181.39 258.296 176.404 240.065 182.274 225.608C182.918 224.026 183.895 222.602 185.138 221.431C186.381 220.26 187.862 219.37 189.479 218.821Z" fill="#6C7FD8"/>
<path d="M199.336 209.503C199.336 209.503 211.836 213.409 218.102 198.564C218.102 198.564 213.635 195.164 217.802 192.407C218.248 192.102 218.756 191.901 219.29 191.819C219.824 191.737 220.37 191.776 220.886 191.934C221.246 192.003 221.569 192.203 221.792 192.494C222.015 192.785 222.124 193.148 222.098 193.514L228.247 184.662C228.247 184.662 235.413 167.812 209.781 172.83C209.781 172.83 197.181 172.962 195.758 190.613C195.606 192.596 195.768 194.59 196.237 196.523L199.336 209.503Z" fill="#1E1D22"/>
<path d="M183.23 225.484C182.501 226.656 182.009 227.96 181.782 229.322C181.496 230.664 181.284 232.021 181.147 233.387C180.885 236.125 180.833 238.887 180.828 241.644C180.846 244.407 180.937 247.173 181.055 249.944C181.173 252.715 181.327 255.494 181.387 258.295C181.066 256.933 180.835 255.556 180.556 254.183C180.303 252.807 180.142 251.418 179.961 250.031C179.631 247.248 179.451 244.449 179.422 241.646C179.406 238.829 179.621 236.016 180.064 233.235C180.213 232.542 180.335 231.847 180.505 231.161C180.711 230.48 180.86 229.791 181.124 229.128C181.365 228.46 181.651 227.81 181.98 227.182C182.289 226.544 182.713 225.967 183.23 225.482V225.484Z" fill="#E6952A"/>
<path d="M217.23 225.484C216.501 226.656 216.009 227.96 215.782 229.322C215.496 230.664 215.284 232.021 215.147 233.387C214.885 236.125 214.833 238.887 214.828 241.644C214.846 244.407 214.937 247.173 215.055 249.944C215.173 252.715 215.327 255.494 215.386 258.295C215.065 256.933 214.834 255.556 214.555 254.183C214.302 252.807 214.141 251.418 213.96 250.031C213.63 247.248 213.45 244.449 213.421 241.646C213.405 238.829 213.619 236.016 214.063 233.235C214.212 232.542 214.334 231.847 214.504 231.161C214.71 230.48 214.86 229.791 215.123 229.128C215.364 228.46 215.65 227.81 215.979 227.182C216.288 226.544 216.712 225.967 217.229 225.482L217.23 225.484ZM186.887 273.465C187.773 276.035 188.779 278.538 189.837 281.003C190.891 283.458 192.103 285.843 193.465 288.141C194.136 289.285 194.872 290.389 195.671 291.448C196.452 292.514 197.313 293.519 198.246 294.454C200.105 296.376 202.364 297.864 204.863 298.815C202.12 298.358 199.565 297.124 197.5 295.26C195.423 293.419 193.654 291.259 192.259 288.86C190.863 286.495 189.71 283.995 188.818 281.398C187.905 278.827 187.257 276.168 186.887 273.465Z" fill="#065082"/>
<path d="M211.716 211.732C211.716 211.732 215.398 215.939 218.963 217.226C218.476 213.995 220.115 213.074 221.439 212.851C221.439 212.851 213.991 213.125 211.716 211.732ZM228.267 193.256C228.749 191.917 228.987 190.502 228.967 189.079C229.001 187.654 228.763 186.235 228.267 184.899C228.056 186.281 227.956 187.678 227.967 189.076C227.946 190.475 228.047 191.874 228.267 193.256Z" fill="#DD765E"/>
<path d="M196.626 216.389C196.626 216.389 191.61 274.012 197.971 311.932C204.332 349.852 193.98 379.612 193.98 379.612C193.98 379.612 185.464 373.346 179.422 374.332C173.38 375.318 162.461 371.481 162.461 371.481C162.461 371.481 171.211 329.692 169.291 310.971C167.371 292.25 170.329 236.641 184.651 220.62C184.651 220.621 192.649 214.44 196.626 216.389Z" fill="#F73C4F"/>
<path d="M204.374 213.359C207.134 213.359 209.371 211.122 209.371 208.362C209.371 205.602 207.134 203.365 204.374 203.365C201.614 203.365 199.377 205.602 199.377 208.362C199.377 211.122 201.614 213.359 204.374 213.359Z" fill="#1E1D22"/>
<path d="M202.692 220.964C205.452 220.964 207.689 218.727 207.689 215.967C207.689 213.207 205.452 210.97 202.692 210.97C199.932 210.97 197.695 213.207 197.695 215.967C197.695 218.727 199.932 220.964 202.692 220.964Z" fill="#1E1D22"/>
<path d="M200.914 227.823C203.674 227.823 205.911 225.586 205.911 222.826C205.911 220.066 203.674 217.829 200.914 217.829C198.154 217.829 195.917 220.066 195.917 222.826C195.917 225.586 198.154 227.823 200.914 227.823Z" fill="#1E1D22"/>
<path d="M198.35 235.132C201.11 235.132 203.347 232.895 203.347 230.135C203.347 227.375 201.11 225.138 198.35 225.138C195.59 225.138 193.353 227.375 193.353 230.135C193.353 232.895 195.59 235.132 198.35 235.132Z" fill="#1E1D22"/>
<path d="M194.29 244.781C194.29 244.781 198.726 242.31 200.172 239.96C200.81 238.833 200.987 237.503 200.664 236.249C200.341 234.995 199.544 233.915 198.441 233.237C197.339 232.558 196.015 232.334 194.751 232.612C193.486 232.889 192.378 233.646 191.66 234.724C190.214 237.075 194.29 244.781 194.29 244.781Z" fill="#1E1D22"/>
<path d="M202.848 236.84C203.109 236.841 203.361 236.749 203.56 236.581C203.76 236.414 203.893 236.18 203.936 235.923C203.98 235.667 203.931 235.403 203.798 235.178C203.665 234.954 203.457 234.785 203.21 234.7L191.838 230.733C191.563 230.637 191.26 230.654 190.997 230.781C190.734 230.908 190.533 231.134 190.437 231.409C190.341 231.685 190.358 231.988 190.485 232.25C190.612 232.513 190.838 232.715 191.113 232.811L202.485 236.778C202.602 236.819 202.725 236.839 202.848 236.84ZM218.491 203.872C214.244 203.872 214.237 197.272 218.491 197.272C222.745 197.272 222.745 203.872 218.491 203.872Z" fill="#F73943"/>
<path d="M212.59 213.002C212.884 212.633 213.067 212.187 213.116 211.718C213.165 211.248 213.078 210.775 212.866 210.353C212.655 209.931 212.326 209.579 211.921 209.338C211.515 209.097 211.049 208.977 210.577 208.992C210.863 208.608 211.032 208.149 211.062 207.671C211.093 207.193 210.984 206.716 210.749 206.299C210.514 205.882 210.162 205.542 209.737 205.32C209.313 205.098 208.833 205.005 208.356 205.051C208.393 205.01 208.436 204.976 208.471 204.932C208.691 204.657 208.849 204.339 208.937 203.998C209.024 203.657 209.038 203.301 208.977 202.955C208.917 202.608 208.783 202.278 208.586 201.987C208.388 201.696 208.131 201.45 207.831 201.266C207.532 201.082 207.196 200.963 206.847 200.918C206.498 200.873 206.144 200.903 205.807 201.005C205.471 201.108 205.16 201.28 204.895 201.512C204.63 201.744 204.417 202.029 204.271 202.349C204.023 201.937 203.661 201.606 203.228 201.397C202.795 201.187 202.31 201.109 201.833 201.171C201.356 201.232 200.908 201.432 200.543 201.745C200.178 202.058 199.911 202.47 199.777 202.932C199.732 202.891 199.695 202.844 199.647 202.806C199.334 202.556 198.966 202.386 198.573 202.309C198.181 202.233 197.775 202.252 197.392 202.366C197.008 202.479 196.658 202.684 196.37 202.962C196.082 203.24 195.866 203.584 195.74 203.963C195.614 204.343 195.581 204.748 195.645 205.143C195.709 205.538 195.867 205.911 196.106 206.232C196.345 206.553 196.658 206.811 197.019 206.985C197.379 207.159 197.776 207.243 198.176 207.23C198.094 207.607 198.101 207.998 198.197 208.372C198.294 208.745 198.477 209.091 198.732 209.381C198.986 209.671 199.305 209.897 199.664 210.041C200.022 210.185 200.409 210.243 200.793 210.21C200.782 210.73 200.934 211.24 201.229 211.668C201.524 212.097 201.946 212.421 202.436 212.597C202.925 212.772 203.458 212.788 203.957 212.644C204.457 212.499 204.898 212.201 205.219 211.792C205.007 212.047 204.849 212.342 204.753 212.659C204.657 212.976 204.626 213.31 204.66 213.639C204.695 213.969 204.796 214.288 204.956 214.578C205.116 214.868 205.332 215.124 205.593 215.329C205.853 215.534 206.152 215.685 206.471 215.773C206.791 215.861 207.125 215.884 207.453 215.841C207.782 215.798 208.099 215.69 208.385 215.522C208.671 215.355 208.92 215.132 209.119 214.867C209.175 214.489 209.319 214.129 209.539 213.817C209.759 213.504 210.049 213.247 210.385 213.066C210.722 212.885 211.096 212.785 211.478 212.774C211.86 212.763 212.24 212.841 212.586 213.003L212.59 213.002Z" fill="#F9DD95"/>
<path d="M197.676 205.39C198.028 205.39 198.313 205.105 198.313 204.753C198.313 204.401 198.028 204.116 197.676 204.116C197.324 204.116 197.039 204.401 197.039 204.753C197.039 205.105 197.324 205.39 197.676 205.39Z" fill="#F4906E"/>
<path d="M202.231 203.962C202.583 203.962 202.868 203.677 202.868 203.325C202.868 202.973 202.583 202.688 202.231 202.688C201.879 202.688 201.594 202.973 201.594 203.325C201.594 203.677 201.879 203.962 202.231 203.962Z" fill="#F4906E"/>
<path d="M200.531 208.449C200.883 208.449 201.168 208.164 201.168 207.812C201.168 207.46 200.883 207.175 200.531 207.175C200.179 207.175 199.894 207.46 199.894 207.812C199.894 208.164 200.179 208.449 200.531 208.449Z" fill="#F4906E"/>
<path d="M200.286 205.824C200.638 205.824 200.923 205.539 200.923 205.187C200.923 204.835 200.638 204.55 200.286 204.55C199.934 204.55 199.649 204.835 199.649 205.187C199.649 205.539 199.934 205.824 200.286 205.824Z" fill="#F4906E"/>
<path d="M204.076 206.007C204.428 206.007 204.713 205.722 204.713 205.37C204.713 205.018 204.428 204.733 204.076 204.733C203.724 204.733 203.439 205.018 203.439 205.37C203.439 205.722 203.724 206.007 204.076 206.007Z" fill="#F4906E"/>
<path d="M206.632 203.792C206.984 203.792 207.269 203.507 207.269 203.155C207.269 202.803 206.984 202.518 206.632 202.518C206.28 202.518 205.995 202.803 205.995 203.155C205.995 203.507 206.28 203.792 206.632 203.792Z" fill="#F4906E"/>
<path d="M208.77 208.302C209.122 208.302 209.407 208.017 209.407 207.665C209.407 207.313 209.122 207.028 208.77 207.028C208.418 207.028 208.133 207.313 208.133 207.665C208.133 208.017 208.418 208.302 208.77 208.302Z" fill="#F4906E"/>
<path d="M206.21 207.907C206.562 207.907 206.847 207.622 206.847 207.27C206.847 206.918 206.562 206.633 206.21 206.633C205.858 206.633 205.573 206.918 205.573 207.27C205.573 207.622 205.858 207.907 206.21 207.907Z" fill="#F4906E"/>
<path d="M203.497 208.801C203.849 208.801 204.134 208.516 204.134 208.164C204.134 207.813 203.849 207.527 203.497 207.527C203.145 207.527 202.86 207.813 202.86 208.164C202.86 208.516 203.145 208.801 203.497 208.801Z" fill="#F4906E"/>
<path d="M203.138 211.314C203.49 211.314 203.775 211.029 203.775 210.677C203.775 210.325 203.49 210.04 203.138 210.04C202.786 210.04 202.501 210.325 202.501 210.677C202.501 211.029 202.786 211.314 203.138 211.314Z" fill="#F4906E"/>
<path d="M206.225 210.503C206.577 210.503 206.862 210.218 206.862 209.866C206.862 209.514 206.577 209.229 206.225 209.229C205.873 209.229 205.588 209.514 205.588 209.866C205.588 210.218 205.873 210.503 206.225 210.503Z" fill="#F4906E"/>
<path d="M206.962 214.327C207.314 214.327 207.599 214.042 207.599 213.69C207.599 213.338 207.314 213.053 206.962 213.053C206.61 213.053 206.325 213.338 206.325 213.69C206.325 214.042 206.61 214.327 206.962 214.327Z" fill="#F4906E"/>
<path d="M210.836 212.143C211.188 212.143 211.473 211.858 211.473 211.506C211.473 211.154 211.188 210.869 210.836 210.869C210.484 210.869 210.199 211.154 210.199 211.506C210.199 211.858 210.484 212.143 210.836 212.143Z" fill="#F4906E"/>
<path d="M208.539 212.326C208.891 212.326 209.176 212.041 209.176 211.689C209.176 211.337 208.891 211.052 208.539 211.052C208.187 211.052 207.902 211.337 207.902 211.689C207.902 212.041 208.187 212.326 208.539 212.326Z" fill="#F4906E"/>
<path d="M226.046 184.422C224.731 186.148 223.693 188.069 222.969 190.115C222.2 192.182 221.847 194.381 221.929 196.585C222.079 198.75 222.282 200.848 222.329 202.971C222.375 204.02 222.308 205.071 222.129 206.106C222.061 206.614 221.888 207.102 221.622 207.54C221.485 207.76 221.299 207.945 221.08 208.083C220.86 208.221 220.612 208.307 220.354 208.335C220.633 208.357 220.914 208.312 221.171 208.202C221.428 208.091 221.655 207.92 221.831 207.703C222.189 207.269 222.452 206.765 222.605 206.224C222.888 205.165 223.053 204.078 223.097 202.983C223.171 200.831 223.114 198.676 222.927 196.531C222.853 194.441 223.113 192.352 223.699 190.344C223.984 189.325 224.327 188.323 224.728 187.344C225.114 186.347 225.554 185.371 226.046 184.422Z" fill="#1E1D22"/>
<path d="M313.024 136.132L313.995 135.892C308.512 113.724 326.423 97.8219 326.604 97.6629L325.948 96.9089C325.761 97.0719 307.392 113.378 313.024 136.132ZM319.584 142.825L320.555 142.585C315.071 120.417 332.982 104.515 333.163 104.356L332.507 103.602C332.32 103.764 313.955 120.071 319.584 142.825ZM350.049 228.293C358.249 228.293 369.111 226.209 377.949 217.263L377.238 216.563C361.188 232.807 338.276 225.824 338.047 225.752L337.747 226.705C341.756 227.791 345.894 228.326 350.047 228.296L350.049 228.293ZM352.336 219.205C360.536 219.205 371.398 217.121 380.236 208.175L379.525 207.475C363.487 223.706 340.564 216.736 340.334 216.664L340.034 217.617C344.043 218.703 348.181 219.238 352.334 219.208L352.336 219.205Z" fill="#F9E0C0"/>
<path d="M120.122 197.983L113.396 233.405L99.6711 238.514L85.9431 233.405L79.217 197.983H120.122Z" fill="#FFBA55"/>
<path d="M135.813 183.57C134.873 182.672 133.691 182.07 132.412 181.837C131.133 181.605 129.815 181.752 128.619 182.262C127.965 182.578 127.382 183.026 126.907 183.576C126.432 184.126 126.075 184.768 125.858 185.462C125.804 185.655 125.172 188.062 126.658 189.604C127.358 190.332 128.664 191.014 129.565 190.549C129.787 190.44 129.976 190.275 130.116 190.072C130.256 189.868 130.342 189.632 130.365 189.386C130.365 188.978 130.071 188.894 129.929 188.369C129.769 187.776 129.888 186.952 130.292 186.769C130.722 186.576 131.474 187.11 131.818 187.714C132.458 188.839 131.892 190.581 130.918 191.566C129.345 193.166 126.761 192.719 125.686 192.535C123.315 192.048 121.189 190.745 119.679 188.853C118.549 187.656 117.748 186.188 117.354 184.59C117.082 183.044 117.148 181.457 117.548 179.939C118.162 176.995 118.923 176.558 120.261 172.769C121.275 169.896 121.778 168.418 121.618 166.374C121.571 164.614 120.96 162.915 119.874 161.529C118.544 159.986 116.67 159.014 114.642 158.816C113.381 158.739 112.119 158.943 110.947 159.412C109.774 159.881 108.72 160.604 107.86 161.529L105.438 158.783C105.438 158.783 108.345 157.702 104.13 150.435L104.93 149.817C104.93 140.948 101.407 132.443 95.1357 126.171C88.8645 119.9 80.3589 116.377 71.4901 116.377C62.6212 116.377 54.1156 119.9 47.8444 126.171C41.5732 132.443 38.05 140.948 38.05 149.817L34.662 240.594H33.4961C32.8023 240.594 32.1369 240.87 31.6463 241.36C31.1557 241.851 30.88 242.516 30.88 243.21C30.88 243.904 31.1557 244.569 31.6463 245.06C32.1369 245.55 32.8023 245.826 33.4961 245.826H34.467L34.0601 256.742H33.497C32.8032 256.742 32.1378 257.018 31.6472 257.508C31.1567 257.999 30.881 258.664 30.881 259.358C30.881 260.052 31.1567 260.717 31.6472 261.208C32.1378 261.698 32.8032 261.974 33.497 261.974H33.8651L25.376 489.411H24.876C24.0023 489.411 23.1643 489.758 22.5465 490.376C21.9286 490.994 21.5815 491.832 21.5815 492.705C21.5815 493.579 21.9286 494.417 22.5465 495.035C23.1643 495.653 24.0023 496 24.876 496H61.2061C62.0798 496 62.9178 495.653 63.5356 495.035C64.1535 494.417 64.5005 493.579 64.5005 492.705C64.5005 491.832 64.1535 490.994 63.5356 490.376C62.9178 489.758 62.0798 489.411 61.2061 489.411H60.406L51.9181 261.972H52.287C52.9809 261.972 53.6462 261.696 54.1368 261.206C54.6274 260.715 54.903 260.05 54.903 259.356C54.903 258.662 54.6274 257.997 54.1368 257.506C53.6462 257.016 52.9809 256.74 52.287 256.74H51.7231L51.316 245.823H52.287C52.9809 245.823 53.6462 245.547 54.1368 245.057C54.6274 244.566 54.903 243.901 54.903 243.207C54.903 242.513 54.6274 241.848 54.1368 241.357C53.6462 240.867 52.9809 240.591 52.287 240.591H51.1211L47.7331 149.814C47.7905 143.553 50.318 137.568 54.7658 133.161C59.2135 128.753 65.2217 126.281 71.4831 126.281C77.7445 126.281 83.7526 128.753 88.2003 133.161C92.6481 137.568 95.1756 143.553 95.233 149.814L96.033 150.432C91.818 157.699 94.725 158.78 94.725 158.78L92.303 161.526C91.4432 160.601 90.389 159.878 89.2164 159.409C88.0437 158.94 86.7817 158.736 85.5211 158.813C83.4932 159.011 81.6196 159.983 80.2891 161.526C79.2035 162.912 78.5921 164.611 78.545 166.371C78.384 168.415 78.888 169.893 79.902 172.766C81.239 176.556 82.0021 176.992 82.6151 179.936C83.0152 181.454 83.0813 183.041 82.809 184.587C82.4148 186.185 81.6139 187.653 80.4841 188.85C78.9736 190.742 76.8477 192.045 74.4761 192.532C73.4011 192.716 70.816 193.158 69.244 191.563C68.274 190.578 67.7081 188.837 68.3441 187.711C68.6881 187.111 69.4441 186.573 69.8701 186.766C70.2701 186.948 70.3931 187.772 70.2331 188.366C70.0911 188.892 69.8011 188.976 69.7971 189.383C69.82 189.629 69.9056 189.865 70.0456 190.069C70.1857 190.272 70.3755 190.437 70.597 190.546C71.497 191.011 72.805 190.329 73.504 189.601C74.989 188.055 74.3571 185.652 74.3041 185.459C74.0869 184.765 73.7298 184.123 73.2549 183.573C72.7801 183.023 72.1975 182.575 71.5431 182.259C70.3474 181.749 69.0286 181.602 67.7499 181.834C66.4712 182.067 65.2888 182.669 64.3491 183.567C63.0516 184.81 62.2727 186.497 62.169 188.291C62.023 192.384 65.9051 195.162 66.9691 195.921C70.7051 198.596 74.8331 198.71 77.8691 198.755C85.9971 198.875 93.2111 198.923 100.081 198.904C106.952 198.922 114.165 198.875 122.294 198.755C125.331 198.71 129.458 198.596 133.194 195.921C134.254 195.162 138.136 192.383 137.994 188.291C137.889 186.498 137.11 184.812 135.813 183.57Z" fill="#6B3832"/>
<path d="M120.122 197.983L113.396 233.405L99.6711 238.514L85.9431 233.405L79.217 197.983H120.122ZM87.3611 232.21L98.8611 236.49V199.598H81.161L87.3611 232.21ZM118.173 199.598H100.479V236.49L111.979 232.21L118.173 199.598Z" fill="#6B3832"/>
<path d="M99.6572 243.207C101.544 243.207 103.073 241.678 103.073 239.791C103.073 237.904 101.544 236.375 99.6572 236.375C97.7706 236.375 96.2412 237.904 96.2412 239.791C96.2412 241.678 97.7706 243.207 99.6572 243.207Z" fill="#6B3832"/>
<path d="M73.729 495.508L72.946 495.037C73.167 494.671 94.9871 458.307 98.3841 449.248L99.239 449.568C95.812 458.706 74.628 494.009 73.729 495.508Z" fill="#8B9D36"/>
<path d="M91.4162 430.18C92.3397 432.465 93.0458 434.832 93.5252 437.249C94.0154 439.617 94.3752 442.01 94.6032 444.417C94.8382 446.824 94.9384 449.241 94.9032 451.659C94.8892 454.124 94.6397 456.582 94.1582 459C93.2301 456.716 92.5222 454.349 92.0442 451.931C91.5532 449.564 91.195 447.171 90.9712 444.763C90.7415 442.356 90.644 439.939 90.6792 437.521C90.6945 435.057 90.9423 432.599 91.4192 430.181L91.4162 430.18ZM83.3622 441.191C84.4868 443.32 85.4034 445.552 86.0992 447.856C86.8005 450.109 87.3744 452.4 87.8182 454.717C88.2679 457.033 88.5847 459.374 88.7672 461.726C88.9757 464.125 88.9496 466.538 88.6892 468.932C87.5603 466.805 86.642 464.573 85.9472 462.268C85.2451 460.015 84.6725 457.724 84.2322 455.406C83.7864 453.089 83.4712 450.749 83.2882 448.396C83.0812 445.998 83.106 443.585 83.3622 441.191ZM78.9252 454.01C79.9159 455.99 80.6968 458.068 81.2552 460.21C81.818 462.296 82.2521 464.414 82.5552 466.552C82.8651 468.69 83.0411 470.845 83.0822 473.005C83.1463 475.217 82.976 477.429 82.5742 479.605C81.5794 477.628 80.7967 475.552 80.2392 473.41C79.6739 471.325 79.2397 469.207 78.9392 467.067C78.6328 464.929 78.4582 462.774 78.4162 460.614C78.3522 458.403 78.5197 456.191 78.9162 454.014L78.9252 454.01ZM73.3372 466.81C74.3313 468.467 75.1243 470.237 75.6992 472.082C76.2745 473.864 76.7226 475.685 77.0402 477.531C77.3638 479.376 77.5536 481.241 77.6082 483.113C77.6865 485.045 77.5314 486.979 77.1462 488.873C76.1477 487.218 75.3529 485.447 74.7792 483.601C74.203 481.819 73.7562 479.998 73.4422 478.151C73.1226 476.306 72.9341 474.44 72.8782 472.568C72.8013 470.637 72.955 468.704 73.3362 466.809L73.3372 466.81ZM68.4072 474.81C69.4216 476.247 70.2589 477.802 70.9012 479.439C71.5305 481.002 72.0543 482.606 72.4692 484.239C72.8801 485.861 73.1963 487.506 73.4162 489.164C73.5162 490 73.6162 490.831 73.6752 491.678C73.7076 492.542 73.7998 493.402 73.9512 494.253C73.7404 494.14 73.5379 494.012 73.3452 493.87L72.8532 493.377C72.5393 493.04 72.2515 492.68 71.9922 492.3C71.4924 491.569 71.0497 490.8 70.6682 490C69.9274 488.443 69.3454 486.816 68.9312 485.142C68.5085 483.484 68.2348 481.791 68.1132 480.084C67.9656 478.321 68.0646 476.546 68.4072 474.81ZM96.2032 455.061C97.8602 453.244 99.7246 451.627 101.758 450.244C103.718 448.883 105.769 447.66 107.898 446.583C110.024 445.5 112.224 444.569 114.481 443.796C116.8 442.974 119.208 442.431 121.654 442.176C120.001 443.997 118.137 445.616 116.102 446.998C114.143 448.36 112.09 449.582 109.959 450.654C107.831 451.733 105.63 452.662 103.373 453.435C101.055 454.256 98.6485 454.801 96.2032 455.061ZM90.7472 465.253C92.866 463.52 95.1625 462.017 97.5982 460.768C99.9637 459.527 102.404 458.435 104.905 457.496C107.404 456.551 109.959 455.764 112.557 455.141C115.213 454.475 117.932 454.096 120.668 454.01C118.552 455.748 116.256 457.253 113.819 458.501C111.454 459.743 109.013 460.834 106.51 461.768C104.01 462.709 101.454 463.493 98.8562 464.117C96.2009 464.781 93.4827 465.162 90.7472 465.253ZM84.3242 476.581C86.2108 474.907 88.283 473.454 90.5002 472.251C92.6428 471.061 94.8636 470.018 97.1472 469.128C99.427 468.232 101.766 467.493 104.147 466.918C106.593 466.3 109.103 465.967 111.626 465.926C109.743 467.605 107.671 469.06 105.452 470.262C103.31 471.453 101.089 472.495 98.8032 473.38C96.5202 474.271 94.1795 475.006 91.7972 475.58C89.3515 476.198 86.8432 476.533 84.3212 476.58L84.3242 476.581ZM79.2482 485.301C80.8915 483.877 82.7152 482.676 84.6722 481.728C86.5444 480.797 88.4874 480.015 90.4832 479.391C92.4756 478.761 94.5155 478.293 96.5832 477.991C98.7334 477.652 100.919 477.6 103.083 477.838C101.442 479.267 99.6187 480.47 97.6602 481.417C95.7881 482.349 93.8438 483.129 91.8462 483.748C89.8511 484.376 87.8093 484.844 85.7402 485.148C83.5926 485.484 81.4102 485.535 79.2492 485.301H79.2482Z" fill="#8B9D36"/>
<path d="M75.2422 493.124C77.0488 491.39 79.0494 489.87 81.2042 488.594C83.2847 487.334 85.4487 486.218 87.6812 485.253C89.9106 484.281 92.2048 483.465 94.5472 482.811C96.9525 482.111 99.4313 481.694 101.933 481.569C100.13 483.308 98.1296 484.83 95.9732 486.105C93.8934 487.366 91.7285 488.48 89.4942 489.441C87.2626 490.408 84.9676 491.222 82.6252 491.877C80.22 492.575 77.7423 492.994 75.2412 493.125L75.2422 493.124ZM97.9772 450.723C97.6439 448.289 97.704 445.816 98.1552 443.401C98.5525 441.124 99.1776 438.892 100.021 436.74C100.857 434.585 101.91 432.52 103.165 430.579C104.473 428.497 106.111 426.642 108.014 425.086C108.355 427.521 108.298 429.995 107.845 432.411C107.449 434.688 106.821 436.919 105.971 439.069C105.129 441.222 104.073 443.285 102.818 445.227C101.509 447.306 99.8748 449.162 97.9772 450.723Z" fill="#8B9D36"/>
<path d="M71.3751 496L70.4631 495.984C70.5031 493.49 71.5861 434.67 83.3531 416.04L84.1241 416.528C72.4891 434.94 71.3891 495.392 71.3751 496Z" fill="#50661A"/>
<path d="M79.9582 424.44C80.3202 421.711 80.4119 418.953 80.2322 416.206C80.0804 413.529 79.7833 410.863 79.3422 408.219C78.9162 405.585 78.3362 402.977 77.6542 400.391C76.9732 397.791 76.1122 395.283 75.1932 392.616C74.9334 393.278 74.7362 393.964 74.6042 394.663C74.4569 395.349 74.3494 396.044 74.2822 396.743C74.1398 398.114 74.078 399.493 74.0972 400.872C74.1374 403.585 74.3858 406.29 74.8401 408.965C75.2823 411.631 75.9078 414.264 76.7122 416.845C77.5073 419.491 78.5961 422.041 79.9582 424.445V424.44ZM94.4211 387.192C92.3986 389.142 90.6641 391.37 89.2701 393.81C87.9125 396.123 86.7575 398.55 85.8182 401.063C84.8702 403.573 84.1451 406.161 83.6512 408.798C83.0991 411.554 82.9469 414.375 83.1992 417.174C85.2276 415.228 86.9651 413 88.3582 410.559C89.7171 408.246 90.8696 405.818 91.8022 403.303C92.7437 400.791 93.466 398.202 93.9612 395.565C94.5113 392.811 94.6661 389.993 94.4211 387.195V387.192ZM104.121 402.183C101.722 404.111 99.4554 406.199 97.3381 408.433C95.2381 410.606 93.2382 412.828 91.2842 415.061L85.4692 421.734C84.4942 422.827 83.5082 423.904 82.4692 424.923C81.4402 426.003 80.2418 426.909 78.9211 427.603C79.7266 427.744 80.552 427.723 81.3492 427.541C82.1534 427.381 82.938 427.134 83.6891 426.805C85.1591 426.159 86.5559 425.358 87.8561 424.416C90.3794 422.569 92.6824 420.438 94.7202 418.066C96.7472 415.742 98.5722 413.249 100.175 410.614C101.825 407.972 103.151 405.141 104.123 402.182L104.121 402.183ZM104.121 417.174C101.163 418.651 98.3416 420.386 95.6891 422.36C93.0645 424.279 90.5396 426.331 88.1241 428.508C85.7037 430.679 83.3975 432.974 81.2151 435.385C78.974 437.816 76.9546 440.443 75.1812 443.234C78.1419 441.762 80.9652 440.028 83.6172 438.053C86.2424 436.134 88.7661 434.08 91.1782 431.9C93.5938 429.725 95.8968 427.428 98.0782 425.018C100.318 422.586 102.338 419.961 104.116 417.174H104.121ZM103.135 428.936C100.155 430.322 97.3044 431.971 94.6161 433.862C91.9573 435.699 89.3946 437.672 86.9382 439.773C84.4768 441.868 82.1266 444.09 79.8972 446.43C77.6085 448.79 75.5365 451.35 73.7062 454.081C76.6889 452.699 79.5414 451.052 82.2292 449.159C84.8882 447.322 87.4494 445.347 89.9022 443.243C92.3603 441.144 94.709 438.921 96.9391 436.582C99.2253 434.223 101.297 431.665 103.131 428.94L103.135 428.936ZM102.478 441.508C99.5128 442.623 96.6565 444.008 93.9452 445.647C91.2689 447.233 88.6791 448.961 86.1871 450.824C83.6906 452.68 81.2968 454.671 79.0162 456.787C76.6733 458.92 74.5344 461.267 72.6271 463.798C75.595 462.688 78.4531 461.303 81.1642 459.663C83.8411 458.077 86.4299 456.347 88.9192 454.481C91.4126 452.62 93.805 450.628 96.0862 448.513C98.4277 446.379 100.568 444.034 102.479 441.507L102.478 441.508ZM103.135 450.63C100.032 451.879 97.0433 453.397 94.2042 455.166C91.3973 456.883 88.6788 458.74 86.0591 460.731C83.4348 462.716 80.9142 464.834 78.5071 467.077C76.0402 469.335 73.7777 471.807 71.7462 474.464C74.8511 473.221 77.8401 471.706 80.6782 469.936C83.4854 468.22 86.2027 466.361 88.8192 464.366C91.4404 462.377 93.9597 460.258 96.3672 458.015C98.8329 455.756 101.096 453.286 103.132 450.633L103.135 450.63ZM105.435 459.176C102.205 460.678 99.0866 462.409 96.1031 464.355C93.1401 466.255 90.2732 468.255 87.4792 470.35C84.6852 472.445 81.9512 474.6 79.2742 476.841C76.5742 479.063 74.0142 481.378 71.2162 483.67C73.013 483.374 74.7674 482.862 76.4412 482.145C78.0984 481.452 79.718 480.672 81.2932 479.809C84.3914 478.076 87.3704 476.139 90.2101 474.009C93.0393 471.888 95.7439 469.605 98.3102 467.173C100.925 464.733 103.31 462.057 105.434 459.179L105.435 459.176ZM108.229 468.05C104.739 469.407 101.351 471.016 98.0952 472.866C94.8592 474.666 91.7182 476.605 88.6492 478.642C85.5802 480.679 82.5852 482.821 79.6642 485.068C78.2042 486.195 76.7582 487.341 75.3262 488.508C73.9421 489.736 72.4716 490.863 70.9261 491.88C71.8961 491.88 72.8589 491.715 73.7731 491.391C74.6901 491.119 75.5812 490.791 76.4622 490.445C78.2192 489.745 79.9172 488.945 81.5822 488.104C84.8879 486.401 88.0932 484.511 91.1822 482.441C94.2705 480.386 97.2527 478.176 100.117 475.819C103.033 473.458 105.748 470.859 108.234 468.049L108.229 468.05ZM77.1292 434.88C76.9808 431.914 76.542 428.971 75.8192 426.091C75.1368 423.264 74.2934 420.478 73.2932 417.747C72.3001 415.013 71.1492 412.34 69.8462 409.74C68.5415 407.072 66.9754 404.541 65.1711 402.182C65.313 405.148 65.7485 408.093 66.4712 410.973C67.1531 413.8 67.9985 416.586 69.0032 419.315C70.0009 422.047 71.1538 424.719 72.4562 427.32C73.7615 429.987 75.3254 432.521 77.1252 434.883L77.1292 434.88ZM75.1812 445.143C74.6213 442.193 73.7767 439.305 72.6592 436.519C71.5884 433.778 70.3638 431.1 68.9911 428.498C67.6252 425.892 66.1107 423.366 64.4551 420.934C62.7894 418.435 60.8826 416.106 58.7621 413.98C59.317 416.931 60.1601 419.82 61.2792 422.607C62.3496 425.348 63.5763 428.025 64.9532 430.625C66.3235 433.229 67.8395 435.753 69.4941 438.186C71.1606 440.683 73.0652 443.013 75.1812 445.143ZM73.7042 455.07C72.7438 452.076 71.5079 449.178 70.0121 446.412C68.5671 443.684 66.9765 441.036 65.2472 438.479C63.5239 435.918 61.6618 433.453 59.6692 431.095C57.6607 428.673 55.4292 426.445 53.0042 424.44C53.9595 427.436 55.1939 430.336 56.6912 433.102C58.1355 435.83 59.7283 438.478 61.4622 441.032C63.1894 443.591 65.0531 446.054 67.0452 448.413C69.0533 450.832 71.2815 453.06 73.7012 455.068L73.7042 455.07ZM72.6241 466.019C71.1181 462.782 69.3502 459.674 67.3381 456.726C65.3735 453.793 63.2771 450.968 61.0491 448.253C58.8211 445.538 56.4718 442.92 54.0012 440.401C51.5134 437.84 48.8175 435.491 45.9412 433.376C47.4412 436.617 49.2076 439.727 51.2222 442.676C53.1868 445.609 55.2848 448.432 57.5162 451.145C59.7475 453.858 62.0985 456.474 64.5692 458.993C67.0584 461.552 69.7527 463.902 72.6252 466.022L72.6241 466.019ZM71.7472 477.372C69.9007 474.295 67.8071 471.374 65.4872 468.637C63.2165 465.911 60.8255 463.306 58.3141 460.821C55.8028 458.336 53.1818 455.963 50.4512 453.701C47.6985 451.399 44.7606 449.328 41.6672 447.509C43.5082 450.589 45.6003 453.512 47.9221 456.248C50.1928 458.974 52.5852 461.578 55.0992 464.059C57.6132 466.54 60.2355 468.912 62.9662 471.175C65.72 473.475 68.6563 475.548 71.7462 477.372H71.7472ZM71.2131 484.652C69.1653 481.998 66.89 479.527 64.4131 477.268C61.994 475.025 59.4635 472.905 56.8312 470.917C54.2037 468.922 51.4758 467.063 48.6582 465.348C45.8097 463.579 42.8107 462.064 39.6962 460.822C41.7412 463.48 44.0167 465.953 46.4962 468.211C48.9148 470.454 51.4468 472.572 54.0822 474.557C56.7128 476.547 59.4419 478.404 62.2592 480.121C65.1078 481.889 68.1052 483.405 71.2172 484.652H71.2131ZM70.9211 490.733C68.4641 488.31 65.8063 486.101 62.9761 484.127C60.2065 482.157 57.3399 480.328 54.3871 478.645C51.4445 476.957 48.4192 475.413 45.3112 474.014C42.1755 472.571 38.9219 471.4 35.5862 470.514C38.04 472.941 40.6974 475.153 43.5292 477.126C46.2986 479.095 49.1659 480.923 52.1201 482.602C55.0661 484.284 58.0925 485.826 61.1992 487.228C64.3347 488.669 67.5867 489.841 70.9202 490.733H70.9211ZM71.1472 494.677C68.1977 492.643 65.0874 490.852 61.8472 489.323C58.6582 487.783 55.4062 486.411 52.1012 485.183C48.7962 483.955 45.4342 482.883 42.0142 481.962C38.5611 481.008 35.0351 480.341 31.4722 479.968C34.4172 482.008 37.5258 483.8 40.7662 485.328C43.9562 486.867 47.2055 488.245 50.5142 489.462C53.8212 490.685 57.1811 491.762 60.6031 492.677C64.0563 493.629 67.5814 494.298 71.1432 494.677H71.1472Z" fill="#50661A"/>
<path d="M69.5491 494.363C68.6491 492.863 47.4661 457.563 44.0391 448.423L44.894 448.103C48.294 457.163 70.111 493.526 70.332 493.892L69.5491 494.363Z" fill="#5E7C24"/>
<path d="M51.8162 429.18C50.8927 431.465 50.1866 433.832 49.7072 436.249C49.217 438.617 48.8572 441.01 48.6292 443.417C48.3941 445.824 48.294 448.241 48.3292 450.659C48.3432 453.124 48.5926 455.582 49.0742 458C50.0023 455.716 50.7101 453.349 51.1882 450.931C51.6805 448.563 52.04 446.17 52.2652 443.762C52.4949 441.355 52.5924 438.938 52.5572 436.52C52.5416 434.056 52.2935 431.598 51.8162 429.18ZM59.8692 440.191C58.7446 442.32 57.828 444.552 57.1322 446.856C56.4304 449.109 55.8562 451.4 55.4122 453.717C54.9625 456.033 54.6457 458.374 54.4632 460.726C54.2547 463.125 54.2808 465.538 54.5412 467.932C55.67 465.805 56.5884 463.573 57.2832 461.268C57.9852 459.015 58.5578 456.724 58.9982 454.406C59.444 452.089 59.7592 449.749 59.9422 447.396C60.1495 444.998 60.1251 442.585 59.8692 440.191ZM64.3072 453.01C63.3165 454.99 62.5355 457.068 61.9772 459.21C61.4143 461.296 60.9802 463.414 60.6772 465.552C60.3673 467.69 60.1913 469.845 60.1502 472.005C60.0861 474.217 60.2564 476.429 60.6582 478.605C61.6531 476.628 62.4358 474.552 62.9932 472.41C63.5585 470.325 63.9927 468.207 64.2932 466.067C64.5996 463.929 64.7743 461.774 64.8162 459.614C64.8802 457.403 64.7126 455.191 64.3162 453.014L64.3072 453.01ZM69.8952 465.81C68.901 467.467 68.1081 469.237 67.5332 471.082C66.9579 472.864 66.5098 474.685 66.1922 476.531C65.8687 478.376 65.6788 480.241 65.6242 482.113C65.5459 484.045 65.701 485.979 66.0862 487.873C67.0846 486.218 67.8794 484.447 68.4532 482.601C69.0293 480.819 69.4762 478.998 69.7902 477.151C70.1098 475.306 70.2982 473.44 70.3542 471.568C70.4311 469.637 70.2773 467.704 69.8962 465.809L69.8952 465.81ZM74.8252 473.81C73.8108 475.247 72.9734 476.802 72.3312 478.439C71.7019 480.002 71.1781 481.606 70.7632 483.239C70.3522 484.861 70.036 486.505 69.8162 488.164C69.7162 489 69.6162 489.831 69.5572 490.678C69.5248 491.542 69.4325 492.402 69.2812 493.253C69.492 493.14 69.6945 493.012 69.8872 492.87L70.3792 492.377C70.6931 492.04 70.9808 491.68 71.2402 491.3C71.7399 490.569 72.1826 489.8 72.5642 489C73.305 487.443 73.887 485.816 74.3012 484.142C74.7239 482.484 74.9976 480.791 75.1192 479.084C75.2674 477.319 75.1684 475.541 74.8252 473.803V473.81ZM47.0252 454.068C45.3682 452.251 43.5038 450.634 41.4702 449.251C39.5108 447.89 37.4592 446.667 35.3302 445.59C33.2044 444.507 31.0045 443.576 28.7472 442.803C26.4287 441.981 24.0209 441.438 21.5742 441.183C23.2276 443.004 25.0913 444.623 27.1262 446.005C29.0851 447.367 31.1379 448.589 33.2692 449.661C35.3974 450.74 37.5981 451.669 39.8552 452.442C42.1738 453.262 44.5805 453.808 47.0262 454.067L47.0252 454.068ZM52.4812 464.26C50.3624 462.527 48.0659 461.024 45.6302 459.775C43.2646 458.534 40.8242 457.442 38.3232 456.503C35.825 455.558 33.2696 454.771 30.6722 454.148C28.0167 453.482 25.2975 453.103 22.5612 453.017C24.6772 454.755 26.9733 456.26 29.4102 457.508C31.7752 458.75 34.2164 459.841 36.7192 460.775C39.2194 461.716 41.7757 462.5 44.3732 463.124C47.0284 463.789 49.7466 464.17 52.4822 464.261L52.4812 464.26ZM58.9042 475.588C57.0175 473.914 54.9454 472.461 52.7282 471.258C50.5856 470.068 48.3648 469.025 46.0812 468.135C43.8014 467.239 41.4625 466.5 39.0812 465.925C36.6349 465.307 34.1251 464.974 31.6022 464.933C33.4858 466.612 35.5577 468.067 37.7762 469.269C39.9183 470.46 42.1398 471.502 44.4252 472.387C46.7082 473.278 49.0489 474.013 51.4312 474.587C53.8769 475.205 56.3852 475.54 58.9072 475.587L58.9042 475.588ZM63.9802 484.308C62.3369 482.884 60.5132 481.683 58.5562 480.735C56.684 479.804 54.7409 479.022 52.7452 478.398C50.7528 477.768 48.7129 477.3 46.6452 476.998C44.4949 476.659 42.309 476.607 40.1452 476.845C41.7857 478.273 43.609 479.477 45.5672 480.424C47.4393 481.356 49.3836 482.136 51.3812 482.755C53.3763 483.383 55.418 483.851 57.4872 484.155C59.6352 484.493 61.8183 484.546 63.9802 484.314V484.308Z" fill="#5E7C24"/>
<path d="M67.991 492.124C66.1844 490.39 64.1838 488.87 62.029 487.594C59.9486 486.334 57.7845 485.217 55.552 484.252C53.3226 483.28 51.0285 482.464 48.686 481.81C46.2807 481.11 43.802 480.693 41.3 480.568C43.1035 482.307 45.1036 483.829 47.26 485.104C49.3401 486.365 51.5054 487.479 53.74 488.44C55.9716 489.407 58.2666 490.221 60.609 490.876C63.0142 491.574 65.4919 491.993 67.993 492.124H67.991ZM45.256 449.724C45.5894 447.289 45.5292 444.817 45.078 442.402C44.6807 440.125 44.0556 437.893 43.212 435.741C42.3766 433.586 41.3231 431.521 40.068 429.58C38.7598 427.498 37.1222 425.643 35.219 424.087C34.878 426.522 34.9351 428.996 35.388 431.413C35.7844 433.69 36.4124 435.921 37.262 438.071C38.1041 440.224 39.1604 442.287 40.415 444.229C41.7235 446.31 43.358 448.167 45.256 449.729V449.724Z" fill="#5E7C24"/>
<path d="M438.231 495.508L439.014 495.037C438.793 494.671 416.973 458.307 413.576 449.248L412.721 449.568C416.148 458.706 437.336 494.009 438.231 495.508Z" fill="#8B9D36"/>
<path d="M420.543 430.18C419.62 432.465 418.914 434.832 418.434 437.249C417.944 439.617 417.584 442.01 417.356 444.417C417.121 446.824 417.021 449.241 417.056 451.659C417.07 454.124 417.319 456.582 417.8 459C418.728 456.716 419.436 454.349 419.914 451.931C420.405 449.564 420.763 447.171 420.987 444.763C421.217 442.356 421.314 439.939 421.279 437.521C421.264 435.057 421.016 432.599 420.539 430.181L420.543 430.18ZM428.596 441.191C427.472 443.32 426.555 445.552 425.859 447.856C425.158 450.109 424.583 452.4 424.139 454.717C423.69 457.033 423.373 459.374 423.19 461.726C422.982 464.125 423.008 466.538 423.268 468.932C424.397 466.805 425.315 464.573 426.01 462.268C426.712 460.015 427.285 457.724 427.725 455.406C428.171 453.089 428.486 450.749 428.669 448.396C428.876 445.998 428.851 443.585 428.595 441.191H428.596ZM433.034 454.01C432.044 455.99 431.263 458.068 430.704 460.21C430.141 462.296 429.707 464.414 429.404 466.552C429.094 468.69 428.918 470.845 428.877 473.005C428.813 475.217 428.983 477.429 429.385 479.605C430.38 477.627 431.162 475.549 431.719 473.406C432.285 471.321 432.719 469.203 433.019 467.063C433.326 464.925 433.5 462.77 433.542 460.61C433.606 458.399 433.439 456.187 433.042 454.01H433.034ZM438.622 466.81C437.628 468.467 436.835 470.237 436.26 472.082C435.685 473.864 435.237 475.685 434.919 477.531C434.596 479.376 434.406 481.241 434.351 483.113C434.273 485.045 434.428 486.979 434.813 488.873C435.812 487.218 436.606 485.447 437.18 483.601C437.756 481.819 438.203 479.998 438.517 478.151C438.837 476.306 439.025 474.44 439.081 472.568C439.158 470.637 439.004 468.704 438.623 466.809L438.622 466.81ZM443.552 474.81C442.538 476.247 441.701 477.802 441.058 479.439C440.429 481.002 439.905 482.606 439.49 484.239C439.079 485.861 438.763 487.506 438.543 489.164C438.443 490 438.343 490.831 438.284 491.678C438.252 492.542 438.16 493.402 438.008 494.253C438.219 494.14 438.422 494.012 438.614 493.87L439.106 493.377C439.42 493.04 439.708 492.68 439.967 492.3C440.467 491.569 440.91 490.8 441.291 490C442.032 488.443 442.614 486.816 443.028 485.142C443.451 483.484 443.725 481.791 443.846 480.084C443.994 478.321 443.895 476.546 443.552 474.81ZM415.752 455.068C414.095 453.251 412.231 451.634 410.197 450.251C408.238 448.89 406.186 447.667 404.057 446.59C401.931 445.507 399.732 444.576 397.474 443.803C395.156 442.981 392.748 442.438 390.301 442.183C391.955 444.004 393.818 445.623 395.853 447.005C397.812 448.367 399.865 449.589 401.996 450.661C404.124 451.74 406.325 452.669 408.582 453.442C410.901 454.262 413.308 454.808 415.753 455.067L415.752 455.068ZM421.208 465.26C419.089 463.527 416.793 462.024 414.357 460.775C411.992 459.534 409.551 458.442 407.05 457.503C404.552 456.558 401.996 455.771 399.398 455.148C396.743 454.482 394.024 454.103 391.287 454.017C393.403 455.755 395.699 457.26 398.136 458.508C400.501 459.75 402.943 460.841 405.445 461.775C407.945 462.716 410.502 463.5 413.099 464.124C415.755 464.789 418.473 465.17 421.208 465.261V465.26ZM427.631 476.588C425.745 474.914 423.672 473.461 421.455 472.258C419.313 471.068 417.092 470.025 414.808 469.135C412.528 468.239 410.19 467.5 407.808 466.925C405.362 466.307 402.852 465.974 400.329 465.933C402.213 467.612 404.285 469.067 406.503 470.269C408.645 471.46 410.867 472.502 413.152 473.387C415.435 474.278 417.776 475.013 420.158 475.587C422.604 476.205 425.112 476.54 427.634 476.587L427.631 476.588ZM432.707 485.308C431.064 483.884 429.24 482.683 427.283 481.735C425.411 480.804 423.468 480.022 421.472 479.398C419.48 478.768 417.44 478.3 415.372 477.998C413.222 477.659 411.036 477.607 408.872 477.845C410.513 479.274 412.336 480.477 414.294 481.424C416.166 482.356 418.11 483.136 420.107 483.755C422.102 484.383 424.144 484.851 426.213 485.155C428.363 485.489 430.548 485.538 432.711 485.301L432.707 485.308Z" fill="#8B9D36"/>
<path d="M436.717 493.124C434.91 491.39 432.91 489.87 430.755 488.594C428.675 487.334 426.511 486.218 424.278 485.253C422.049 484.281 419.754 483.465 417.412 482.811C415.007 482.111 412.528 481.694 410.026 481.569C411.83 483.308 413.83 484.83 415.986 486.105C418.066 487.366 420.231 488.48 422.466 489.441C424.698 490.408 426.993 491.222 429.335 491.877C431.74 492.575 434.218 492.994 436.719 493.125L436.717 493.124ZM413.982 450.724C414.315 448.289 414.255 445.817 413.804 443.402C413.407 441.125 412.782 438.893 411.938 436.741C411.103 434.586 410.049 432.521 408.794 430.58C407.486 428.498 405.848 426.642 403.945 425.085C403.604 427.52 403.661 429.994 404.114 432.411C404.511 434.688 405.138 436.919 405.988 439.069C406.83 441.222 407.886 443.285 409.141 445.227C410.45 447.306 412.084 449.162 413.982 450.723V450.724Z" fill="#8B9D36"/>
<path d="M440.584 496L441.496 495.984C441.456 493.49 440.373 434.67 428.606 416.04L427.835 416.528C439.465 434.94 440.575 495.392 440.584 496Z" fill="#50661A"/>
<path d="M432.002 424.44C431.64 421.711 431.548 418.953 431.728 416.206C431.88 413.529 432.177 410.863 432.618 408.219C433.044 405.585 433.624 402.977 434.306 400.391C434.987 397.791 435.848 395.283 436.767 392.616C437.027 393.278 437.224 393.964 437.356 394.663C437.503 395.349 437.611 396.044 437.678 396.743C437.82 398.114 437.882 399.493 437.863 400.872C437.823 403.585 437.574 406.29 437.12 408.965C436.678 411.631 436.052 414.264 435.248 416.845C434.453 419.49 433.364 422.037 432.002 424.44ZM417.539 387.192C419.562 389.142 421.296 391.37 422.69 393.81C424.048 396.123 425.203 398.55 426.142 401.063C427.09 403.573 427.815 406.161 428.309 408.798C428.861 411.554 429.013 414.375 428.761 417.174C426.733 415.228 424.995 413 423.602 410.559C422.243 408.246 421.091 405.818 420.158 403.303C419.217 400.791 418.494 398.202 417.999 395.565C417.449 392.811 417.294 389.993 417.539 387.195V387.192ZM407.839 402.183C410.239 404.111 412.505 406.199 414.622 408.433C416.722 410.606 418.722 412.828 420.676 415.061L426.491 421.734C427.466 422.827 428.452 423.904 429.491 424.923C430.52 426.003 431.718 426.909 433.039 427.603C432.234 427.744 431.408 427.723 430.611 427.541C429.807 427.381 429.022 427.134 428.271 426.805C426.801 426.159 425.404 425.358 424.104 424.416C421.581 422.569 419.278 420.438 417.24 418.066C415.213 415.742 413.388 413.249 411.785 410.614C410.137 407.973 408.813 405.143 407.842 402.186L407.839 402.183ZM407.839 417.174C410.797 418.651 413.619 420.386 416.271 422.36C418.896 424.279 421.421 426.331 423.836 428.508C426.257 430.679 428.563 432.974 430.745 435.385C432.986 437.816 435.006 440.443 436.779 443.234C433.818 441.762 430.995 440.028 428.343 438.053C425.718 436.134 423.194 434.08 420.782 431.9C418.366 429.725 416.063 427.428 413.882 425.018C411.642 422.586 409.622 419.961 407.844 417.174H407.839ZM408.825 428.936C411.805 430.322 414.656 431.971 417.344 433.862C420.003 435.699 422.566 437.672 425.022 439.773C427.483 441.868 429.834 444.09 432.063 446.43C434.352 448.79 436.424 451.35 438.254 454.081C435.271 452.699 432.419 451.052 429.731 449.159C427.072 447.322 424.511 445.347 422.058 443.243C419.6 441.144 417.251 438.921 415.021 436.582C412.732 434.222 410.657 431.663 408.821 428.936H408.825ZM409.483 441.508C412.448 442.623 415.305 444.008 418.016 445.647C420.692 447.233 423.282 448.961 425.774 450.824C428.271 452.68 430.664 454.671 432.945 456.787C435.288 458.92 437.427 461.267 439.334 463.798C436.366 462.688 433.508 461.303 430.797 459.663C428.12 458.077 425.531 456.347 423.042 454.481C420.549 452.62 418.156 450.628 415.875 448.513C413.534 446.379 411.393 444.034 409.482 441.507L409.483 441.508ZM408.825 450.63C411.927 451.878 414.915 453.395 417.753 455.163C420.56 456.88 423.278 458.737 425.898 460.728C428.522 462.713 431.043 464.831 433.45 467.074C435.917 469.332 438.18 471.804 440.211 474.461C437.106 473.218 434.117 471.703 431.279 469.933C428.472 468.217 425.755 466.358 423.138 464.363C420.517 462.374 417.998 460.255 415.59 458.012C413.124 455.753 410.861 453.283 408.825 450.63ZM406.525 459.176C409.755 460.678 412.874 462.409 415.857 464.355C418.82 466.255 421.687 468.255 424.481 470.35C427.275 472.445 430.009 474.6 432.686 476.841C435.386 479.063 437.946 481.378 440.744 483.67C438.947 483.374 437.193 482.862 435.519 482.145C433.862 481.452 432.242 480.672 430.667 479.809C427.569 478.076 424.59 476.139 421.75 474.009C418.921 471.888 416.216 469.605 413.65 467.173C411.035 464.733 408.65 462.057 406.526 459.179L406.525 459.176ZM403.731 468.05C407.222 469.407 410.609 471.016 413.865 472.866C417.101 474.666 420.242 476.605 423.311 478.642C426.38 480.679 429.375 482.821 432.296 485.068C433.756 486.195 435.202 487.341 436.634 488.508C438.018 489.736 439.489 490.863 441.034 491.88C440.064 491.88 439.101 491.715 438.187 491.391C437.27 491.119 436.379 490.791 435.498 490.445C433.741 489.745 432.043 488.945 430.378 488.104C427.072 486.401 423.867 484.511 420.778 482.441C417.69 480.386 414.708 478.176 411.843 475.82C408.927 473.459 406.212 470.86 403.726 468.05H403.731ZM434.831 434.88C434.979 431.914 435.418 428.971 436.141 426.091C436.823 423.264 437.667 420.478 438.667 417.747C439.661 415.013 440.814 412.34 442.118 409.74C443.423 407.072 444.989 404.541 446.793 402.182C446.651 405.148 446.216 408.093 445.493 410.973C444.811 413.8 443.966 416.586 442.961 419.315C441.963 422.047 440.81 424.719 439.508 427.32C438.203 429.986 436.639 432.519 434.839 434.88H434.831ZM436.78 445.143C437.34 442.193 438.184 439.305 439.302 436.519C440.373 433.778 441.597 431.1 442.97 428.498C444.336 425.892 445.851 423.366 447.506 420.934C449.172 418.435 451.079 416.106 453.199 413.98C452.644 416.931 451.801 419.82 450.682 422.607C449.612 425.348 448.385 428.025 447.008 430.625C445.638 433.229 444.122 435.753 442.467 438.186C440.801 440.683 438.896 443.013 436.78 445.143ZM438.254 455.067C439.214 452.073 440.45 449.175 441.946 446.409C443.394 443.682 444.986 441.035 446.718 438.479C448.441 435.918 450.303 433.453 452.296 431.095C454.303 428.674 456.534 426.447 458.957 424.443C458.002 427.439 456.767 430.339 455.27 433.105C453.826 435.833 452.233 438.481 450.499 441.035C448.772 443.594 446.908 446.057 444.916 448.416C442.908 450.835 440.68 453.063 438.26 455.071L438.254 455.067ZM439.334 466.016C440.84 462.779 442.608 459.671 444.62 456.723C446.585 453.79 448.681 450.965 450.909 448.25C453.137 445.535 455.486 442.917 457.957 440.398C460.445 437.837 463.141 435.488 466.017 433.373C464.517 436.614 462.751 439.724 460.736 442.673C458.771 445.606 456.673 448.429 454.442 451.142C452.211 453.855 449.86 456.471 447.389 458.99C444.9 461.549 442.206 463.899 439.333 466.019L439.334 466.016ZM440.211 477.369C442.058 474.292 444.151 471.371 446.471 468.634C448.742 465.908 451.133 463.303 453.644 460.818C456.155 458.333 458.776 455.96 461.507 453.698C464.26 451.396 467.198 449.325 470.291 447.506C468.45 450.586 466.358 453.509 464.036 456.245C461.765 458.971 459.373 461.575 456.859 464.056C454.345 466.537 451.723 468.909 448.992 471.172C446.238 473.473 443.302 475.547 440.212 477.372L440.211 477.369ZM440.745 484.649C442.793 481.995 445.068 479.524 447.545 477.265C449.964 475.022 452.495 472.902 455.127 470.914C457.755 468.919 460.482 467.06 463.3 465.345C466.149 463.576 469.148 462.061 472.262 460.819C470.217 463.477 467.942 465.95 465.462 468.208C463.043 470.451 460.511 472.569 457.876 474.554C455.245 476.544 452.516 478.401 449.699 480.118C446.85 481.886 443.853 483.402 440.741 484.649H440.745ZM441.037 490.73C443.494 488.307 446.152 486.098 448.982 484.124C451.752 482.154 454.618 480.325 457.571 478.642C460.514 476.954 463.539 475.41 466.647 474.011C469.783 472.568 473.036 471.397 476.372 470.511C473.918 472.938 471.261 475.15 468.429 477.123C465.66 479.092 462.792 480.92 459.838 482.599C456.892 484.281 453.866 485.823 450.759 487.225C447.624 488.667 444.373 489.84 441.04 490.733L441.037 490.73ZM440.81 494.674C443.76 492.64 446.87 490.849 450.11 489.32C453.299 487.78 456.551 486.408 459.856 485.18C463.161 483.952 466.523 482.88 469.943 481.959C473.396 481.005 476.922 480.338 480.485 479.965C477.54 482.005 474.431 483.797 471.191 485.325C468.001 486.864 464.752 488.242 461.443 489.459C458.136 490.682 454.776 491.759 451.354 492.674C447.901 493.626 444.376 494.295 440.814 494.674H440.81Z" fill="#50661A"/>
<path d="M442.41 494.363C443.31 492.863 464.493 457.563 467.92 448.423L467.065 448.103C463.665 457.163 441.848 493.526 441.627 493.892L442.41 494.363Z" fill="#5E7C24"/>
<path d="M460.144 429.18C461.068 431.465 461.774 433.832 462.253 436.249C462.743 438.617 463.103 441.01 463.331 443.417C463.566 445.824 463.666 448.241 463.631 450.659C463.617 453.124 463.368 455.582 462.886 458C461.958 455.716 461.25 453.349 460.772 450.931C460.281 448.564 459.923 446.171 459.699 443.763C459.469 441.356 459.372 438.939 459.407 436.521C459.422 434.057 459.67 431.599 460.147 429.181L460.144 429.18ZM452.09 440.191C453.215 442.32 454.131 444.552 454.827 446.856C455.529 449.109 456.103 451.4 456.547 453.717C456.997 456.033 457.314 458.374 457.496 460.726C457.705 463.125 457.679 465.538 457.418 467.932C456.289 465.805 455.371 463.573 454.676 461.268C453.974 459.015 453.402 456.724 452.961 454.406C452.515 452.089 452.2 449.749 452.017 447.396C451.81 444.998 451.835 442.585 452.091 440.191H452.09ZM447.653 453.01C448.644 454.99 449.425 457.068 449.983 459.21C450.546 461.296 450.98 463.414 451.283 465.552C451.593 467.69 451.769 469.845 451.81 472.005C451.874 474.217 451.704 476.429 451.302 478.605C450.307 476.628 449.525 474.552 448.967 472.41C448.402 470.325 447.968 468.207 447.667 466.067C447.361 463.929 447.187 461.774 447.145 459.614C447.081 457.403 447.249 455.191 447.645 453.014L447.653 453.01ZM442.065 465.81C443.059 467.467 443.852 469.237 444.427 471.082C445.002 472.864 445.451 474.685 445.768 476.531C446.092 478.376 446.282 480.241 446.336 482.113C446.415 484.045 446.259 485.979 445.874 487.873C444.876 486.218 444.081 484.447 443.507 482.601C442.931 480.819 442.484 478.998 442.17 477.151C441.851 475.306 441.662 473.44 441.606 471.568C441.529 469.637 441.683 467.704 442.064 465.809L442.065 465.81ZM437.135 473.81C438.15 475.247 438.987 476.802 439.629 478.439C440.258 480.002 440.782 481.606 441.197 483.239C441.608 484.861 441.924 486.506 442.144 488.164C442.244 489 442.344 489.831 442.403 490.678C442.436 491.542 442.528 492.402 442.679 493.253C442.468 493.14 442.266 493.012 442.073 492.87L441.581 492.377C441.267 492.04 440.98 491.68 440.72 491.3C440.22 490.569 439.778 489.8 439.396 489C438.655 487.441 438.072 485.811 437.658 484.135C437.236 482.477 436.962 480.784 436.84 479.077C436.693 477.314 436.792 475.539 437.135 473.803V473.81ZM464.935 454.068C466.592 452.251 468.457 450.634 470.49 449.251C472.45 447.89 474.501 446.667 476.63 445.59C478.756 444.507 480.956 443.576 483.213 442.803C485.532 441.981 487.94 441.438 490.386 441.183C488.733 443.005 486.869 444.623 484.834 446.005C482.875 447.367 480.823 448.589 478.691 449.661C476.563 450.74 474.362 451.669 472.105 452.442C469.786 453.26 467.378 453.804 464.932 454.061L464.935 454.068ZM459.479 464.26C461.598 462.527 463.894 461.024 466.33 459.775C468.696 458.534 471.136 457.442 473.637 456.503C476.136 455.558 478.691 454.771 481.289 454.148C483.945 453.482 486.664 453.103 489.4 453.017C487.284 454.755 484.988 456.26 482.551 457.508C480.186 458.75 477.745 459.841 475.242 460.775C472.742 461.716 470.186 462.5 467.588 463.124C464.933 463.788 462.214 464.169 459.478 464.26H459.479ZM453.056 475.588C454.943 473.914 457.015 472.461 459.232 471.258C461.375 470.068 463.596 469.025 465.879 468.135C468.159 467.239 470.498 466.5 472.879 465.925C475.325 465.307 477.835 464.974 480.358 464.933C478.474 466.612 476.403 468.067 474.184 469.269C472.042 470.46 469.82 471.502 467.535 472.387C465.252 473.278 462.911 474.013 460.529 474.587C458.084 475.205 455.575 475.54 453.053 475.587L453.056 475.588ZM447.98 484.308C449.624 482.884 451.447 481.683 453.404 480.735C455.276 479.804 457.219 479.022 459.215 478.398C461.208 477.768 463.247 477.3 465.315 476.998C467.465 476.659 469.651 476.607 471.815 476.845C470.175 478.273 468.351 479.477 466.393 480.424C464.521 481.356 462.577 482.136 460.58 482.755C458.585 483.383 456.543 483.851 454.474 484.155C452.326 484.493 450.143 484.546 447.981 484.314L447.98 484.308Z" fill="#5E7C24"/>
<path d="M443.97 492.124C445.777 490.39 447.777 488.87 449.932 487.594C452.013 486.334 454.177 485.218 456.409 484.253C458.639 483.281 460.933 482.465 463.276 481.811C465.682 481.111 468.16 480.694 470.662 480.569C468.859 482.308 466.859 483.83 464.702 485.105C462.622 486.366 460.457 487.48 458.222 488.441C455.991 489.408 453.696 490.222 451.353 490.877C448.948 491.575 446.471 491.993 443.97 492.124ZM466.705 449.724C466.372 447.289 466.432 444.817 466.883 442.402C467.28 440.125 467.906 437.893 468.749 435.741C469.585 433.586 470.638 431.521 471.893 429.58C473.201 427.498 474.839 425.643 476.742 424.087C477.083 426.522 477.026 428.996 476.573 431.413C476.177 433.69 475.549 435.921 474.699 438.071C473.857 440.224 472.801 442.287 471.546 444.229C470.238 446.31 468.603 448.167 466.705 449.729V449.724Z" fill="#5E7C24"/>
</svg>
