<svg width="71" height="52" viewBox="0 0 71 52" fill="none" xmlns="http://www.w3.org/2000/svg">
<path d="M35.338 34.0379C46.17 34.0379 55.42 35.7549 55.42 42.6279C55.42 49.5009 46.23 51.2769 35.338 51.2769C24.506 51.2769 15.256 49.5599 15.256 42.6909C15.256 35.8219 24.447 34.0379 35.338 34.0379ZM52.658 29.8999C56.0931 29.8409 59.5249 30.1425 62.897 30.7999C66.383 31.4849 68.675 32.8839 69.625 34.9169C70.0214 35.7391 70.2273 36.6402 70.2273 37.5529C70.2273 38.4657 70.0214 39.3667 69.625 40.1889C68.172 43.3419 63.488 44.3539 61.667 44.6159C61.5797 44.6271 61.4909 44.618 61.4076 44.5892C61.3244 44.5605 61.2489 44.5129 61.187 44.4502C61.1252 44.3875 61.0787 44.3113 61.0511 44.2277C61.0235 44.144 61.0156 44.0551 61.028 43.9679C61.958 35.2309 54.56 31.0879 52.646 30.1359C52.6166 30.1248 52.5917 30.1042 52.5753 30.0775C52.5588 30.0507 52.5517 30.0192 52.555 29.9879C52.5612 29.9645 52.5744 29.9436 52.5928 29.9278C52.6112 29.9121 52.6339 29.9024 52.658 29.8999ZM17.558 29.8939L18.338 29.9009C18.3607 29.903 18.3823 29.9116 18.4001 29.9259C18.4179 29.9401 18.4311 29.9592 18.438 29.9809C18.4416 30.0122 18.435 30.0438 18.4191 30.071C18.4033 30.0983 18.379 30.1196 18.35 30.1319C16.433 31.0839 9.03603 35.2319 9.96603 43.9609C9.97886 44.0481 9.97139 44.137 9.9442 44.2208C9.91701 44.3046 9.87084 44.3809 9.80928 44.444C9.74773 44.507 9.67245 44.5549 9.58932 44.584C9.50619 44.6132 9.41745 44.6227 9.33003 44.6119C7.51003 44.3499 2.83003 43.3379 1.37203 40.1849C0.974383 39.3633 0.767822 38.4623 0.767822 37.5494C0.767822 36.6366 0.974383 35.7356 1.37203 34.9139C2.32203 32.8809 4.61203 31.4819 8.09703 30.7939C11.4707 30.1407 14.9033 29.8414 18.339 29.9009L17.558 29.8939ZM35.338 0.763921C37.0898 0.762434 38.8246 1.1076 40.4424 1.77955C42.0602 2.45149 43.529 3.43692 44.7643 4.67906C45.9996 5.9212 46.9768 7.39549 47.6398 9.017C48.3027 10.6385 48.6382 12.3752 48.627 14.1269C48.627 17.6514 47.2269 21.0315 44.7348 23.5237C42.2426 26.0158 38.8625 27.4159 35.338 27.4159C31.8136 27.4159 28.4335 26.0158 25.9413 23.5237C23.4491 21.0315 22.049 17.6514 22.049 14.1269C22.0378 12.3752 22.3733 10.6385 23.0363 9.017C23.6992 7.39549 24.6765 5.9212 25.9118 4.67906C27.147 3.43692 28.6159 2.45149 30.2337 1.77955C31.8515 1.1076 33.5862 0.762434 35.338 0.763921ZM53.379 2.99292C55.1072 3.00527 56.8095 3.41424 58.3547 4.18832C59.8999 4.96239 61.2467 6.0809 62.2914 7.45765C63.3361 8.8344 64.0507 10.4326 64.3802 12.1291C64.7098 13.8257 64.6454 15.5752 64.192 17.2429C63.5538 19.682 62.1035 21.8309 60.0803 23.3353C58.057 24.8397 55.5816 25.6099 53.062 25.5189C52.5505 25.5061 52.0405 25.4566 51.536 25.3709C51.4533 25.3577 51.3753 25.3239 51.309 25.2726C51.2428 25.2213 51.1905 25.1542 51.1569 25.0775C51.1234 25.0007 51.1097 24.9168 51.117 24.8333C51.1244 24.7499 51.1526 24.6696 51.199 24.5999C53.2692 21.5011 54.352 17.8477 54.3047 14.1213C54.2574 10.3949 53.0822 6.77021 50.934 3.72492C50.8933 3.67796 50.8669 3.62034 50.8579 3.55886C50.8489 3.49739 50.8576 3.43461 50.883 3.37792C50.9464 3.29445 51.0395 3.23859 51.143 3.22192C51.8787 3.06992 52.6279 2.99319 53.379 2.99292ZM17.618 2.99292C18.3702 2.99363 19.1204 3.07069 19.857 3.22292C19.9598 3.24154 20.0522 3.29701 20.117 3.37892C20.1418 3.43575 20.1501 3.49838 20.1411 3.55971C20.1321 3.62103 20.1061 3.67861 20.066 3.72592C17.9178 6.77116 16.7426 10.3958 16.6951 14.1222C16.6476 17.8486 17.7301 21.5019 19.8 24.6009C19.8465 24.6706 19.8747 24.7507 19.8821 24.8341C19.8895 24.9175 19.8759 25.0014 19.8424 25.0781C19.809 25.1548 19.7568 25.222 19.6907 25.2733C19.6246 25.3246 19.5467 25.3585 19.464 25.3719C18.9597 25.4589 18.4497 25.5083 17.938 25.5199C15.4183 25.6107 12.9429 24.8403 10.9197 23.3357C8.8965 21.8311 7.44628 19.6821 6.80803 17.2429C6.35394 15.5754 6.2889 13.8258 6.61792 12.1291C6.94694 10.4324 7.66124 8.83394 8.70572 7.45698C9.75021 6.08001 11.097 4.96132 12.6422 4.18717C14.1874 3.41302 15.8898 3.00409 17.618 2.99192V2.99292Z" fill="#4BA5FF"/>
</svg>
