<svg width="42" height="45" viewBox="0 0 42 45" fill="none" xmlns="http://www.w3.org/2000/svg">
<path d="M22.9061 21.545L30.1411 14.31L6.77209 1.17597C5.22309 0.338968 3.77209 0.221968 2.50009 1.13697L22.9061 21.545ZM31.3741 30.015L38.8981 25.784C39.5401 25.4969 40.0914 25.0396 40.4921 24.4616C40.8927 23.8836 41.1276 23.2069 41.1711 22.505C41.1267 21.8035 40.8915 21.1275 40.4909 20.55C40.0903 19.9724 39.5395 19.5153 38.8981 19.228L32.0881 15.403L24.4221 23.066L31.3741 30.015ZM1.24309 2.91497C1.07727 3.43541 0.994592 3.97876 0.998091 4.52497V40.504C0.977063 41.3321 1.17617 42.151 1.57509 42.877L21.3861 23.064L1.24309 2.91497ZM22.9061 24.584L3.20509 44.284C3.59182 44.4311 4.00234 44.5056 4.41609 44.504C5.25016 44.4852 6.06547 44.2528 6.78409 43.829L29.4291 31.114L22.9061 24.584Z" fill="#003887"/>
</svg>
