<svg width="59" height="63" viewBox="0 0 59 63" fill="none" xmlns="http://www.w3.org/2000/svg">
<path d="M20.6111 58.236V48.75C20.6131 48.172 20.7291 47.6001 20.9523 47.0669C21.1755 46.5337 21.5015 46.0498 21.9118 45.6427C22.3221 45.2355 22.8085 44.9132 23.3434 44.6942C23.8783 44.4751 24.4511 44.3636 25.0291 44.366H33.9451C35.1147 44.3651 36.2373 44.8266 37.0681 45.65C37.4777 46.0557 37.8029 46.5385 38.025 47.0706C38.2471 47.6026 38.3616 48.1734 38.3621 48.75V58.235C38.3581 58.7337 38.4533 59.2282 38.6422 59.6899C38.831 60.1515 39.1097 60.571 39.4621 60.924C40.1786 61.6391 41.1497 62.0405 42.1621 62.04H48.2451C51.0821 62.0487 53.8072 60.9342 55.8251 58.94C56.8196 57.957 57.6094 56.7867 58.1487 55.4966C58.688 54.2065 58.9661 52.8223 58.9671 51.424V24.398C58.966 23.2708 58.7165 22.1578 58.2363 21.138C57.7562 20.1183 57.0572 19.2169 56.1891 18.498L35.4991 2.09796C33.7506 0.703705 31.5707 -0.0370671 29.3348 0.00327375C27.0989 0.0436146 24.947 0.862543 23.2501 2.31896L3.02905 18.498C2.12047 19.1952 1.37946 20.087 0.860353 21.1079C0.341246 22.1289 0.0572044 23.253 0.0290527 24.398L0.0290527 51.398C0.0396419 54.2311 1.1752 56.944 3.18594 58.9399C5.19668 60.9359 7.91791 62.0513 10.7511 62.041H16.6951C17.7034 62.0447 18.6723 61.6497 19.3905 60.9419C20.1087 60.2342 20.518 59.2712 20.5291 58.263L20.6111 58.236Z" fill="#41CFBF"/>
</svg>
