<svg width="147" height="22" viewBox="0 0 147 22" fill="none" xmlns="http://www.w3.org/2000/svg">
<path d="M18.024 13.424C17.888 13.5561 17.7861 13.7191 17.7269 13.8992C17.6677 14.0793 17.653 14.271 17.684 14.458L18.632 19.704C18.6711 19.9218 18.6466 20.1463 18.5615 20.3506C18.4764 20.5549 18.3342 20.7304 18.152 20.856C17.9731 20.9863 17.761 21.0635 17.5402 21.0785C17.3194 21.0936 17.0988 21.0459 16.904 20.941L12.182 18.478C12.0175 18.3908 11.8351 18.3429 11.649 18.338H11.36C11.2588 18.354 11.1613 18.3879 11.072 18.438L6.34996 20.912C6.11617 21.0295 5.85132 21.0704 5.59296 21.029C5.28933 20.9715 5.02018 20.7976 4.8429 20.5445C4.66561 20.2913 4.59423 19.979 4.64396 19.674L5.59096 14.424C5.62204 14.2354 5.60737 14.0422 5.5482 13.8605C5.48904 13.6789 5.3871 13.514 5.25096 13.38L1.40096 9.65298C1.24416 9.50082 1.13391 9.30718 1.08308 9.09468C1.03226 8.88218 1.04297 8.65961 1.11396 8.45297C1.18412 8.24592 1.3095 8.06197 1.47658 7.92098C1.64365 7.77999 1.84606 7.68732 2.06196 7.65297L7.36196 6.88397C7.56026 6.86335 7.75016 6.79308 7.91411 6.67964C8.07805 6.56621 8.21076 6.41327 8.29996 6.23497L10.634 1.44197C10.6899 1.33522 10.7629 1.23828 10.85 1.15497L10.95 1.07997C10.9998 1.02501 11.0578 0.978121 11.122 0.940975L11.238 0.897975L11.413 0.823975H11.862C12.0592 0.844309 12.2482 0.913474 12.412 1.02522C12.5758 1.13696 12.7091 1.28776 12.8 1.46397L15.166 6.22997C15.2501 6.40137 15.3745 6.54989 15.5284 6.66289C15.6823 6.77589 15.8612 6.85002 16.05 6.87897L21.35 7.64797C21.5695 7.67954 21.7761 7.77086 21.9471 7.91196C22.1182 8.05306 22.2472 8.23849 22.32 8.44797C22.3874 8.65672 22.3942 8.88034 22.3395 9.09278C22.2848 9.30523 22.1708 9.49776 22.011 9.64797L18.024 13.424Z" fill="#F7A92B"/>
<path d="M17.4611 21.334C17.2255 21.3337 16.9937 21.2753 16.7861 21.164L12.0661 18.702C11.936 18.6334 11.792 18.5954 11.6451 18.591H11.3801C11.3143 18.6022 11.2508 18.6242 11.1921 18.656L6.46408 21.134C6.18221 21.276 5.86288 21.3261 5.55108 21.277H5.54508C5.17582 21.2094 4.84805 20.9991 4.6328 20.6916C4.41754 20.384 4.33213 20.0041 4.39508 19.634L5.34508 14.384C5.36878 14.2355 5.35664 14.0836 5.30967 13.9407C5.2627 13.7979 5.18227 13.6684 5.07508 13.563L1.22708 9.832C1.03589 9.64588 0.901559 9.40923 0.839765 9.14966C0.777972 8.89009 0.79126 8.6183 0.87808 8.366C0.962384 8.11579 1.11372 7.89351 1.31561 7.72335C1.5175 7.5532 1.76221 7.4417 2.02308 7.401L7.33608 6.631C7.49264 6.61515 7.64264 6.55988 7.77205 6.47034C7.90146 6.3808 8.00606 6.25992 8.07608 6.119L10.4131 1.324C10.4806 1.194 10.5687 1.0758 10.6741 0.973998L10.6941 0.956998L10.7741 0.894998C10.8373 0.828107 10.9097 0.770532 10.9891 0.723998L11.0081 0.713998L11.1401 0.664998L11.3621 0.572998H11.8861C12.1248 0.59716 12.3537 0.680628 12.5519 0.815808C12.7501 0.950989 12.9114 1.13359 13.0211 1.347L15.3901 6.119C15.4566 6.25472 15.555 6.37229 15.677 6.46163C15.7989 6.55098 15.9406 6.60944 16.0901 6.632L21.3901 7.4C21.6552 7.43733 21.9049 7.54721 22.1116 7.7175C22.3182 7.88779 22.4738 8.11187 22.5611 8.365C22.6444 8.62013 22.6534 8.89368 22.5872 9.15376C22.521 9.41384 22.3822 9.64975 22.1871 9.834L18.2001 13.608C18.0937 13.7119 18.014 13.8401 17.9679 13.9815C17.9217 14.1229 17.9105 14.2733 17.9351 14.42L18.8821 19.662C18.9153 19.8676 18.9036 20.0779 18.8478 20.2785C18.7919 20.4791 18.6933 20.6652 18.5586 20.824C18.4239 20.9828 18.2564 21.1105 18.0677 21.1984C17.8789 21.2863 17.6733 21.3322 17.4651 21.333L17.4611 21.334ZM11.3411 18.091H11.6561C11.8809 18.0972 12.1012 18.155 12.3001 18.26L17.0201 20.724C17.1556 20.7971 17.3071 20.8356 17.4611 20.836C17.6563 20.8364 17.8466 20.7744 18.0041 20.659H18.0091C18.1516 20.561 18.2629 20.424 18.3296 20.2643C18.3963 20.1047 18.4155 19.9293 18.3851 19.759L17.4371 14.513C17.3989 14.2856 17.4164 14.0524 17.4881 13.8333C17.5599 13.6141 17.6838 13.4157 17.8491 13.255L21.8391 9.478C21.965 9.35951 22.0547 9.2077 22.0977 9.04022C22.1407 8.87275 22.1353 8.69651 22.0821 8.532C22.0244 8.36653 21.9221 8.22017 21.7867 8.10902C21.6512 7.99788 21.4876 7.92624 21.3141 7.902L16.0141 7.133C15.7848 7.09827 15.5674 7.00855 15.3804 6.8715C15.1933 6.73445 15.0423 6.55414 14.9401 6.346L12.5761 1.575C12.5054 1.43836 12.4023 1.3212 12.2756 1.23383C12.149 1.14647 12.0029 1.09158 11.8501 1.074H11.4641L11.3191 1.133L11.2261 1.167C11.1892 1.18884 11.1555 1.21577 11.1261 1.247L11.1141 1.264L11.0141 1.343C10.9519 1.40531 10.8996 1.47681 10.8591 1.555L8.52408 6.34C8.41663 6.55539 8.25654 6.74017 8.05866 6.87722C7.86078 7.01427 7.6315 7.09915 7.39208 7.124L2.09808 7.892C1.92753 7.91886 1.76761 7.99199 1.63572 8.10342C1.50384 8.21486 1.40504 8.36032 1.35008 8.524C1.29388 8.68653 1.2851 8.86171 1.32476 9.02905C1.36443 9.19639 1.4509 9.34898 1.57408 9.469L5.42408 13.201C5.58903 13.3633 5.71263 13.5628 5.7845 13.7827C5.85636 14.0027 5.8744 14.2366 5.83708 14.465L4.88708 19.715C4.84765 19.9547 4.90365 20.2003 5.04309 20.3991C5.18253 20.598 5.39432 20.7344 5.63308 20.779C5.83799 20.8106 6.04766 20.7778 6.23308 20.685L10.9531 18.212C11.0672 18.15 11.1915 18.1087 11.3201 18.09L11.3411 18.091Z" fill="#F7A92B"/>
<path d="M49.0489 13.424C48.9129 13.5561 48.811 13.7191 48.7518 13.8992C48.6926 14.0793 48.6779 14.271 48.7089 14.458L49.6569 19.704C49.696 19.9218 49.6715 20.1463 49.5864 20.3506C49.5013 20.5549 49.3591 20.7304 49.1769 20.856C48.998 20.9863 48.7859 21.0635 48.5651 21.0785C48.3443 21.0936 48.1237 21.0459 47.9289 20.941L43.2069 18.478C43.0424 18.3908 42.86 18.3429 42.6739 18.338H42.3849C42.2837 18.354 42.1862 18.3879 42.0969 18.438L37.3749 20.912C37.1411 21.0295 36.8762 21.0704 36.6179 21.029C36.3142 20.9715 36.0451 20.7976 35.8678 20.5445C35.6905 20.2913 35.6191 19.979 35.6689 19.674L36.6159 14.424C36.6469 14.2354 36.6323 14.0422 36.5731 13.8605C36.5139 13.6789 36.412 13.514 36.2759 13.38L32.4259 9.65298C32.2691 9.50082 32.1588 9.30718 32.108 9.09468C32.0572 8.88218 32.0679 8.65961 32.1389 8.45297C32.209 8.24592 32.3344 8.06197 32.5015 7.92098C32.6686 7.77999 32.871 7.68732 33.0869 7.65297L38.3869 6.88397C38.5852 6.86335 38.7751 6.79308 38.939 6.67964C39.103 6.56621 39.2357 6.41327 39.3249 6.23497L41.6589 1.44197C41.7148 1.33522 41.7878 1.23828 41.8749 1.15497L41.9749 1.07997C42.0247 1.02501 42.0827 0.978121 42.1469 0.940975L42.2629 0.897975L42.4379 0.823975H42.8869C43.0841 0.844309 43.2731 0.913474 43.4369 1.02522C43.6007 1.13696 43.734 1.28776 43.8249 1.46397L46.1909 6.22997C46.275 6.40137 46.3994 6.54989 46.5533 6.66289C46.7072 6.77589 46.8861 6.85002 47.0749 6.87897L52.3749 7.64797C52.5944 7.67954 52.801 7.77086 52.972 7.91196C53.1431 8.05306 53.2721 8.23849 53.3449 8.44797C53.4123 8.65672 53.4191 8.88034 53.3644 9.09278C53.3097 9.30523 53.1957 9.49776 53.0359 9.64797L49.0489 13.424Z" fill="#F7A92B"/>
<path d="M48.486 21.334C48.2504 21.3337 48.0186 21.2753 47.811 21.164L43.091 18.702C42.9609 18.6334 42.8169 18.5954 42.67 18.591H42.405C42.3392 18.6022 42.2757 18.6242 42.217 18.656L37.489 21.134C37.2071 21.276 36.8878 21.3261 36.576 21.277H36.57C36.2007 21.2094 35.873 20.9991 35.6577 20.6916C35.4424 20.384 35.357 20.0041 35.42 19.634L36.37 14.384C36.3937 14.2355 36.3815 14.0836 36.3346 13.9407C36.2876 13.7979 36.2072 13.6684 36.1 13.563L32.252 9.832C32.0608 9.64588 31.9265 9.40923 31.8647 9.14966C31.8029 8.89009 31.8162 8.6183 31.903 8.366C31.9873 8.11579 32.1386 7.89351 32.3405 7.72335C32.5424 7.5532 32.7871 7.4417 33.048 7.401L38.361 6.631C38.5175 6.61515 38.6675 6.55988 38.7969 6.47034C38.9264 6.3808 39.031 6.25992 39.101 6.119L41.438 1.324C41.5055 1.194 41.5936 1.0758 41.699 0.973998L41.719 0.956998L41.799 0.894998C41.8622 0.828107 41.9346 0.770532 42.014 0.723998L42.033 0.713998L42.165 0.664998L42.387 0.572998H42.911C43.1497 0.59716 43.3786 0.680628 43.5768 0.815808C43.775 0.950989 43.9363 1.13359 44.046 1.347L46.415 6.119C46.4815 6.25472 46.5799 6.37229 46.7019 6.46163C46.8238 6.55098 46.9655 6.60944 47.115 6.632L52.415 7.4C52.6801 7.43733 52.9298 7.54721 53.1365 7.7175C53.3431 7.88779 53.4987 8.11187 53.586 8.365C53.6693 8.62013 53.6783 8.89368 53.6121 9.15376C53.5459 9.41384 53.4071 9.64975 53.212 9.834L49.225 13.608C49.1186 13.7119 49.0389 13.8401 48.9928 13.9815C48.9466 14.1229 48.9354 14.2733 48.96 14.42L49.907 19.662C49.9402 19.8676 49.9285 20.0779 49.8727 20.2785C49.8168 20.4791 49.7182 20.6652 49.5835 20.824C49.4488 20.9828 49.2813 21.1105 49.0926 21.1984C48.9038 21.2863 48.6982 21.3322 48.49 21.333L48.486 21.334ZM42.366 18.091H42.681C42.9058 18.0972 43.1261 18.155 43.325 18.26L48.045 20.724C48.1805 20.7971 48.332 20.8356 48.486 20.836C48.6812 20.8364 48.8715 20.7744 49.029 20.659H49.034C49.1765 20.561 49.2878 20.424 49.3545 20.2643C49.4212 20.1047 49.4404 19.9293 49.41 19.759L48.462 14.513C48.4238 14.2856 48.4413 14.0524 48.513 13.8333C48.5848 13.6141 48.7087 13.4157 48.874 13.255L52.864 9.478C52.9899 9.35951 53.0796 9.2077 53.1226 9.04022C53.1656 8.87275 53.1602 8.69651 53.107 8.532C53.0493 8.36653 52.947 8.22017 52.8116 8.10902C52.6761 7.99788 52.5125 7.92624 52.339 7.902L47.039 7.133C46.8097 7.09827 46.5923 7.00855 46.4053 6.8715C46.2182 6.73445 46.0672 6.55414 45.965 6.346L43.601 1.575C43.5303 1.43836 43.4272 1.3212 43.3005 1.23383C43.1739 1.14647 43.0278 1.09158 42.875 1.074H42.489L42.344 1.133L42.251 1.167C42.2141 1.18884 42.1804 1.21577 42.151 1.247L42.139 1.264L42.039 1.343C41.9768 1.40531 41.9245 1.47681 41.884 1.555L39.549 6.34C39.4415 6.55539 39.2814 6.74017 39.0836 6.87722C38.8857 7.01427 38.6564 7.09915 38.417 7.124L33.123 7.892C32.9524 7.91886 32.7925 7.99199 32.6606 8.10342C32.5287 8.21486 32.4299 8.36032 32.375 8.524C32.3188 8.68653 32.31 8.86171 32.3497 9.02905C32.3893 9.19639 32.4758 9.34898 32.599 9.469L36.449 13.201C36.6139 13.3633 36.7375 13.5628 36.8094 13.7827C36.8813 14.0027 36.8993 14.2366 36.862 14.465L35.912 19.715C35.8726 19.9547 35.9286 20.2003 36.068 20.3991C36.2074 20.598 36.4192 20.7344 36.658 20.779C36.8629 20.8106 37.0726 20.7778 37.258 20.685L41.978 18.212C42.0922 18.15 42.2164 18.1087 42.345 18.09L42.366 18.091Z" fill="#F7A92B"/>
<path d="M80.073 13.424C79.9371 13.5561 79.8352 13.7191 79.776 13.8992C79.7168 14.0793 79.702 14.271 79.733 14.458L80.681 19.704C80.7201 19.9218 80.6957 20.1463 80.6105 20.3506C80.5254 20.5549 80.3832 20.7304 80.201 20.856C80.0222 20.9863 79.8101 21.0635 79.5893 21.0785C79.3685 21.0936 79.1479 21.0459 78.953 20.941L74.231 18.478C74.0666 18.3908 73.8841 18.3429 73.698 18.338H73.409C73.3079 18.354 73.2104 18.3879 73.121 18.438L68.399 20.912C68.1652 21.0295 67.9004 21.0704 67.642 21.029C67.3384 20.9715 67.0692 20.7976 66.892 20.5445C66.7147 20.2913 66.6433 19.979 66.693 19.674L67.64 14.424C67.6711 14.2354 67.6564 14.0422 67.5973 13.8605C67.5381 13.6789 67.4362 13.514 67.3 13.38L63.45 9.65298C63.2932 9.50082 63.183 9.30718 63.1322 9.09468C63.0813 8.88218 63.092 8.65961 63.163 8.45297C63.2332 8.24592 63.3586 8.06197 63.5256 7.92098C63.6927 7.77999 63.8951 7.68732 64.111 7.65297L69.411 6.88397C69.6093 6.86335 69.7992 6.79308 69.9632 6.67964C70.1271 6.56621 70.2598 6.41327 70.349 6.23497L72.683 1.44197C72.739 1.33522 72.8119 1.23828 72.899 1.15497L72.999 1.07997C73.0488 1.02501 73.1068 0.978121 73.171 0.940975L73.287 0.897975L73.462 0.823975H73.911C74.1083 0.844309 74.2973 0.913474 74.4611 1.02522C74.6248 1.13696 74.7582 1.28776 74.849 1.46397L77.215 6.22997C77.2992 6.40137 77.4235 6.54989 77.5774 6.66289C77.7314 6.77589 77.9103 6.85002 78.099 6.87897L83.399 7.64797C83.6185 7.67954 83.8251 7.77086 83.9962 7.91196C84.1673 8.05306 84.2963 8.23849 84.369 8.44797C84.4365 8.65672 84.4433 8.88034 84.3885 9.09278C84.3338 9.30523 84.2199 9.49776 84.06 9.64797L80.073 13.424Z" fill="#F7A92B"/>
<path d="M79.5102 21.334C79.2746 21.3337 79.0428 21.2753 78.8352 21.164L74.1152 18.702C73.9851 18.6334 73.8411 18.5954 73.6942 18.591H73.4292C73.3633 18.6022 73.2998 18.6242 73.2412 18.656L68.5132 21.134C68.2313 21.276 67.912 21.3261 67.6002 21.277H67.5942C67.2249 21.2094 66.8971 20.9991 66.6819 20.6916C66.4666 20.384 66.3812 20.0041 66.4442 19.634L67.3942 14.384C67.4179 14.2355 67.4057 14.0836 67.3587 13.9407C67.3118 13.7979 67.2313 13.6684 67.1242 13.563L63.2762 9.832C63.085 9.64588 62.9506 9.40923 62.8888 9.14966C62.827 8.89009 62.8403 8.6183 62.9272 8.366C63.0115 8.11579 63.1628 7.89351 63.3647 7.72335C63.5666 7.5532 63.8113 7.4417 64.0722 7.401L69.3852 6.631C69.5417 6.61515 69.6917 6.55988 69.8211 6.47034C69.9505 6.3808 70.0551 6.25992 70.1252 6.119L72.4622 1.324C72.5297 1.194 72.6178 1.0758 72.7232 0.973998L72.7432 0.956998L72.8232 0.894998C72.8864 0.828107 72.9588 0.770532 73.0382 0.723998L73.0572 0.713998L73.1892 0.664998L73.4112 0.572998H73.9352C74.1739 0.59716 74.4028 0.680628 74.601 0.815808C74.7992 0.950989 74.9605 1.13359 75.0702 1.347L77.4392 6.119C77.5057 6.25472 77.6041 6.37229 77.726 6.46163C77.8479 6.55098 77.9897 6.60944 78.1392 6.632L83.4392 7.4C83.7043 7.43733 83.954 7.54721 84.1606 7.7175C84.3673 7.88779 84.5228 8.11187 84.6102 8.365C84.6934 8.62013 84.7025 8.89368 84.6363 9.15376C84.5701 9.41384 84.4313 9.64975 84.2362 9.834L80.2492 13.608C80.1428 13.7119 80.0631 13.8401 80.017 13.9815C79.9708 14.1229 79.9596 14.2733 79.9842 14.42L80.9312 19.662C80.9644 19.8676 80.9527 20.0779 80.8968 20.2785C80.841 20.4791 80.7423 20.6652 80.6077 20.824C80.473 20.9828 80.3055 21.1105 80.1167 21.1984C79.928 21.2863 79.7224 21.3322 79.5142 21.333L79.5102 21.334ZM73.3902 18.091H73.7052C73.9299 18.0972 74.1503 18.155 74.3492 18.26L79.0692 20.724C79.2047 20.7971 79.3562 20.8356 79.5102 20.836C79.7054 20.8364 79.8957 20.7744 80.0532 20.659H80.0582C80.2007 20.561 80.312 20.424 80.3786 20.2643C80.4453 20.1047 80.4646 19.9293 80.4342 19.759L79.4862 14.513C79.4479 14.2856 79.4655 14.0524 79.5372 13.8333C79.609 13.6141 79.7328 13.4157 79.8982 13.255L83.8882 9.478C84.0141 9.35951 84.1038 9.2077 84.1468 9.04022C84.1898 8.87275 84.1844 8.69651 84.1312 8.532C84.0734 8.36653 83.9712 8.22017 83.8357 8.10902C83.7002 7.99788 83.5367 7.92624 83.3632 7.902L78.0632 7.133C77.8339 7.09827 77.6165 7.00855 77.4294 6.8715C77.2424 6.73445 77.0913 6.55414 76.9892 6.346L74.6252 1.575C74.5545 1.43836 74.4513 1.3212 74.3247 1.23383C74.1981 1.14647 74.052 1.09158 73.8992 1.074H73.5132L73.3682 1.133L73.2752 1.167C73.2382 1.18884 73.2046 1.21577 73.1752 1.247L73.1632 1.264L73.0632 1.343C73.0009 1.40531 72.9487 1.47681 72.9082 1.555L70.5732 6.34C70.4657 6.55539 70.3056 6.74017 70.1077 6.87722C69.9098 7.01427 69.6806 7.09915 69.4412 7.124L64.1472 7.892C63.9766 7.91886 63.8167 7.99199 63.6848 8.10342C63.5529 8.21486 63.4541 8.36032 63.3992 8.524C63.3429 8.68653 63.3342 8.86171 63.3738 9.02905C63.4135 9.19639 63.5 9.34898 63.6232 9.469L67.4732 13.201C67.6381 13.3633 67.7617 13.5628 67.8336 13.7827C67.9054 14.0027 67.9235 14.2366 67.8862 14.465L66.9362 19.715C66.8967 19.9547 66.9527 20.2003 67.0922 20.3991C67.2316 20.598 67.4434 20.7344 67.6822 20.779C67.8871 20.8106 68.0967 20.7778 68.2822 20.685L73.0022 18.212C73.1163 18.15 73.2406 18.1087 73.3692 18.09L73.3902 18.091Z" fill="#F7A92B"/>
<path d="M111.098 13.424C110.962 13.5561 110.86 13.7191 110.801 13.8992C110.742 14.0793 110.727 14.271 110.758 14.458L111.706 19.704C111.745 19.9218 111.721 20.1463 111.635 20.3506C111.55 20.5549 111.408 20.7304 111.226 20.856C111.047 20.9863 110.835 21.0635 110.614 21.0785C110.393 21.0936 110.173 21.0459 109.978 20.941L105.256 18.478C105.091 18.3908 104.909 18.3429 104.723 18.338H104.434C104.333 18.354 104.235 18.3879 104.146 18.438L99.4239 20.912C99.1901 21.0295 98.9253 21.0704 98.6669 21.029C98.3633 20.9715 98.0942 20.7976 97.9169 20.5445C97.7396 20.2913 97.6682 19.979 97.7179 19.674L98.6649 14.424C98.696 14.2354 98.6813 14.0422 98.6222 13.8605C98.563 13.6789 98.4611 13.514 98.3249 13.38L94.4749 9.65298C94.3181 9.50082 94.2079 9.30718 94.1571 9.09468C94.1062 8.88218 94.1169 8.65961 94.1879 8.45297C94.2581 8.24592 94.3835 8.06197 94.5506 7.92098C94.7176 7.77999 94.92 7.68732 95.1359 7.65297L100.436 6.88397C100.634 6.86335 100.824 6.79308 100.988 6.67964C101.152 6.56621 101.285 6.41327 101.374 6.23497L103.708 1.44197C103.764 1.33522 103.837 1.23828 103.924 1.15497L104.024 1.07997C104.074 1.02501 104.132 0.978121 104.196 0.940975L104.312 0.897975L104.487 0.823975H104.936C105.133 0.844309 105.322 0.913474 105.486 1.02522C105.65 1.13696 105.783 1.28776 105.874 1.46397L108.24 6.22997C108.324 6.40137 108.448 6.54989 108.602 6.66289C108.756 6.77589 108.935 6.85002 109.124 6.87897L114.424 7.64797C114.643 7.67954 114.85 7.77086 115.021 7.91196C115.192 8.05306 115.321 8.23849 115.394 8.44797C115.461 8.65672 115.468 8.88034 115.413 9.09278C115.359 9.30523 115.245 9.49776 115.085 9.64797L111.098 13.424Z" fill="#E3E1E7"/>
<path d="M110.535 21.334C110.3 21.3337 110.068 21.2753 109.86 21.164L105.14 18.702C105.01 18.6334 104.866 18.5954 104.719 18.591H104.454C104.388 18.6022 104.325 18.6242 104.266 18.656L99.5381 21.134C99.2562 21.276 98.9369 21.3261 98.6251 21.277H98.6191C98.2498 21.2094 97.922 20.9991 97.7068 20.6916C97.4915 20.384 97.4061 20.0041 97.4691 19.634L98.4191 14.384C98.4428 14.2355 98.4306 14.0836 98.3836 13.9407C98.3367 13.7979 98.2562 13.6684 98.1491 13.563L94.3011 9.832C94.1099 9.64588 93.9755 9.40923 93.9137 9.14966C93.8519 8.89009 93.8652 8.6183 93.9521 8.366C94.0364 8.11579 94.1877 7.89351 94.3896 7.72335C94.5915 7.5532 94.8362 7.4417 95.0971 7.401L100.41 6.631C100.567 6.61515 100.717 6.55988 100.846 6.47034C100.975 6.3808 101.08 6.25992 101.15 6.119L103.487 1.324C103.555 1.194 103.643 1.0758 103.748 0.973998L103.768 0.956998L103.848 0.894998C103.911 0.828107 103.984 0.770532 104.063 0.723998L104.082 0.713998L104.214 0.664998L104.436 0.572998H104.96C105.199 0.59716 105.428 0.680628 105.626 0.815808C105.824 0.950989 105.985 1.13359 106.095 1.347L108.464 6.119C108.531 6.25472 108.629 6.37229 108.751 6.46163C108.873 6.55098 109.015 6.60944 109.164 6.632L114.464 7.4C114.729 7.43733 114.979 7.54721 115.186 7.7175C115.392 7.88779 115.548 8.11187 115.635 8.365C115.718 8.62013 115.727 8.89368 115.661 9.15376C115.595 9.41384 115.456 9.64975 115.261 9.834L111.274 13.608C111.168 13.7119 111.088 13.8401 111.042 13.9815C110.996 14.1229 110.984 14.2733 111.009 14.42L111.956 19.662C111.989 19.8676 111.978 20.0779 111.922 20.2785C111.866 20.4791 111.767 20.6652 111.633 20.824C111.498 20.9828 111.33 21.1105 111.142 21.1984C110.953 21.2863 110.747 21.3322 110.539 21.333L110.535 21.334ZM104.415 18.091H104.73C104.955 18.0972 105.175 18.155 105.374 18.26L110.094 20.724C110.23 20.7971 110.381 20.8356 110.535 20.836C110.73 20.8364 110.921 20.7744 111.078 20.659H111.083C111.226 20.561 111.337 20.424 111.404 20.2643C111.47 20.1047 111.49 19.9293 111.459 19.759L110.511 14.513C110.473 14.2856 110.49 14.0524 110.562 13.8333C110.634 13.6141 110.758 13.4157 110.923 13.255L114.913 9.478C115.039 9.35951 115.129 9.2077 115.172 9.04022C115.215 8.87275 115.209 8.69651 115.156 8.532C115.098 8.36653 114.996 8.22017 114.861 8.10902C114.725 7.99788 114.562 7.92624 114.388 7.902L109.088 7.133C108.859 7.09827 108.641 7.00855 108.454 6.8715C108.267 6.73445 108.116 6.55414 108.014 6.346L105.65 1.575C105.579 1.43836 105.476 1.3212 105.35 1.23383C105.223 1.14647 105.077 1.09158 104.924 1.074H104.538L104.393 1.133L104.3 1.167C104.263 1.18884 104.229 1.21577 104.2 1.247L104.188 1.264L104.088 1.343C104.026 1.40531 103.974 1.47681 103.933 1.555L101.598 6.34C101.491 6.55539 101.331 6.74017 101.133 6.87722C100.935 7.01427 100.705 7.09915 100.466 7.124L95.1721 7.892C95.0015 7.91886 94.8416 7.99199 94.7097 8.10342C94.5778 8.21486 94.479 8.36032 94.4241 8.524C94.3679 8.68653 94.3591 8.86171 94.3987 9.02905C94.4384 9.19639 94.5249 9.34898 94.6481 9.469L98.4981 13.201C98.663 13.3633 98.7866 13.5628 98.8585 13.7827C98.9303 14.0027 98.9484 14.2366 98.9111 14.465L97.9611 19.715C97.9216 19.9547 97.9776 20.2003 98.1171 20.3991C98.2565 20.598 98.4683 20.7344 98.7071 20.779C98.912 20.8106 99.1216 20.7778 99.3071 20.685L104.027 18.212C104.141 18.15 104.265 18.1087 104.394 18.09L104.415 18.091Z" fill="#E3E1E7"/>
<path d="M142.123 13.424C141.987 13.5561 141.885 13.7191 141.826 13.8992C141.767 14.0793 141.752 14.271 141.783 14.458L142.731 19.704C142.77 19.9218 142.745 20.1463 142.66 20.3506C142.575 20.5549 142.433 20.7304 142.251 20.856C142.072 20.9863 141.86 21.0635 141.639 21.0785C141.418 21.0936 141.198 21.0459 141.003 20.941L136.281 18.478C136.116 18.3908 135.934 18.3429 135.748 18.338H135.459C135.358 18.354 135.26 18.3879 135.171 18.438L130.449 20.912C130.215 21.0295 129.95 21.0704 129.692 21.029C129.388 20.9715 129.119 20.7976 128.942 20.5445C128.764 20.2913 128.693 19.979 128.743 19.674L129.69 14.424C129.721 14.2354 129.706 14.0422 129.647 13.8605C129.588 13.6789 129.486 13.514 129.35 13.38L125.5 9.65298C125.343 9.50082 125.233 9.30718 125.182 9.09468C125.131 8.88218 125.142 8.65961 125.213 8.45297C125.283 8.24592 125.408 8.06197 125.575 7.92098C125.743 7.77999 125.945 7.68732 126.161 7.65297L131.461 6.88397C131.659 6.86335 131.849 6.79308 132.013 6.67964C132.177 6.56621 132.31 6.41327 132.399 6.23497L134.733 1.44197C134.789 1.33522 134.862 1.23828 134.949 1.15497L135.049 1.07997C135.099 1.02501 135.157 0.978121 135.221 0.940975L135.337 0.897975L135.512 0.823975H135.961C136.158 0.844309 136.347 0.913474 136.511 1.02522C136.675 1.13696 136.808 1.28776 136.899 1.46397L139.265 6.22997C139.349 6.40137 139.473 6.54989 139.627 6.66289C139.781 6.77589 139.96 6.85002 140.149 6.87897L145.449 7.64797C145.668 7.67954 145.875 7.77086 146.046 7.91196C146.217 8.05306 146.346 8.23849 146.419 8.44797C146.486 8.65672 146.493 8.88034 146.438 9.09278C146.384 9.30523 146.27 9.49776 146.11 9.64797L142.123 13.424Z" fill="#E3E1E7"/>
<path d="M141.56 21.334C141.324 21.3337 141.093 21.2753 140.885 21.164L136.165 18.702C136.035 18.6334 135.891 18.5954 135.744 18.591H135.479C135.413 18.6022 135.35 18.6242 135.291 18.656L130.563 21.134C130.281 21.276 129.962 21.3261 129.65 21.277H129.644C129.275 21.2094 128.947 20.9991 128.732 20.6916C128.516 20.384 128.431 20.0041 128.494 19.634L129.444 14.384C129.468 14.2355 129.456 14.0836 129.409 13.9407C129.362 13.7979 129.281 13.6684 129.174 13.563L125.326 9.832C125.135 9.64588 125 9.40923 124.939 9.14966C124.877 8.89009 124.89 8.6183 124.977 8.366C125.061 8.11579 125.213 7.89351 125.414 7.72335C125.616 7.5532 125.861 7.4417 126.122 7.401L131.435 6.631C131.592 6.61515 131.742 6.55988 131.871 6.47034C132 6.3808 132.105 6.25992 132.175 6.119L134.512 1.324C134.579 1.194 134.668 1.0758 134.773 0.973998L134.793 0.956998L134.873 0.894998C134.936 0.828107 135.009 0.770532 135.088 0.723998L135.107 0.713998L135.239 0.664998L135.461 0.572998H135.985C136.224 0.59716 136.453 0.680628 136.651 0.815808C136.849 0.950989 137.01 1.13359 137.12 1.347L139.489 6.119C139.555 6.25472 139.654 6.37229 139.776 6.46163C139.898 6.55098 140.04 6.60944 140.189 6.632L145.489 7.4C145.754 7.43733 146.004 7.54721 146.21 7.7175C146.417 7.88779 146.573 8.11187 146.66 8.365C146.743 8.62013 146.752 8.89368 146.686 9.15376C146.62 9.41384 146.481 9.64975 146.286 9.834L142.299 13.608C142.193 13.7119 142.113 13.8401 142.067 13.9815C142.021 14.1229 142.009 14.2733 142.034 14.42L142.981 19.662C143.014 19.8676 143.002 20.0779 142.947 20.2785C142.891 20.4791 142.792 20.6652 142.657 20.824C142.523 20.9828 142.355 21.1105 142.167 21.1984C141.978 21.2863 141.772 21.3322 141.564 21.333L141.56 21.334ZM135.44 18.091H135.755C135.98 18.0972 136.2 18.155 136.399 18.26L141.119 20.724C141.254 20.7971 141.406 20.8356 141.56 20.836C141.755 20.8364 141.945 20.7744 142.103 20.659H142.108C142.25 20.561 142.362 20.424 142.428 20.2643C142.495 20.1047 142.514 19.9293 142.484 19.759L141.536 14.513C141.498 14.2856 141.515 14.0524 141.587 13.8333C141.659 13.6141 141.783 13.4157 141.948 13.255L145.938 9.478C146.064 9.35951 146.154 9.2077 146.197 9.04022C146.24 8.87275 146.234 8.69651 146.181 8.532C146.123 8.36653 146.021 8.22017 145.886 8.10902C145.75 7.99788 145.587 7.92624 145.413 7.902L140.113 7.133C139.884 7.09827 139.666 7.00855 139.479 6.8715C139.292 6.73445 139.141 6.55414 139.039 6.346L136.675 1.575C136.604 1.43836 136.501 1.3212 136.375 1.23383C136.248 1.14647 136.102 1.09158 135.949 1.074H135.563L135.418 1.133L135.325 1.167C135.288 1.18884 135.254 1.21577 135.225 1.247L135.213 1.264L135.113 1.343C135.051 1.40531 134.998 1.47681 134.958 1.555L132.623 6.34C132.516 6.55539 132.355 6.74017 132.158 6.87722C131.96 7.01427 131.73 7.09915 131.491 7.124L126.197 7.892C126.026 7.91886 125.866 7.99199 125.735 8.10342C125.603 8.21486 125.504 8.36032 125.449 8.524C125.393 8.68653 125.384 8.86171 125.424 9.02905C125.463 9.19639 125.55 9.34898 125.673 9.469L129.523 13.201C129.688 13.3633 129.812 13.5628 129.883 13.7827C129.955 14.0027 129.973 14.2366 129.936 14.465L128.986 19.715C128.947 19.9547 129.003 20.2003 129.142 20.3991C129.281 20.598 129.493 20.7344 129.732 20.779C129.937 20.8106 130.147 20.7778 130.332 20.685L135.052 18.212C135.166 18.15 135.29 18.1087 135.419 18.09L135.44 18.091Z" fill="#E3E1E7"/>
</svg>
