<svg width="66" height="64" viewBox="0 0 66 64" fill="none" xmlns="http://www.w3.org/2000/svg">
<path d="M52.0191 39.593C51.6025 39.9975 51.2901 40.4969 51.1086 41.0484C50.9272 41.6 50.882 42.1873 50.9771 42.76L53.8771 58.825C53.9968 59.4918 53.9219 60.1789 53.6614 60.8042C53.4009 61.4295 52.9658 61.9665 52.4081 62.351C51.8604 62.7495 51.2114 62.9853 50.5356 63.0315C49.8599 63.0777 49.1849 62.9323 48.5881 62.612L34.1281 55.07C33.6241 54.8032 33.0652 54.6567 32.4951 54.642H31.6101C31.301 54.6873 31.0025 54.7869 30.7281 54.936L16.2641 62.514C15.5483 62.8742 14.7373 62.9998 13.9461 62.873C13.0162 62.6968 12.1919 62.1643 11.649 61.3891C11.1062 60.6138 10.8876 59.6571 11.0401 58.723L13.9461 42.658C14.0416 42.0802 13.9967 41.4879 13.8154 40.9309C13.6341 40.374 13.3215 39.8689 12.9041 39.458L1.11407 28.034C0.631891 27.5662 0.293449 26.9703 0.138605 26.3166C-0.0162396 25.6628 0.0189639 24.9785 0.240069 24.344C0.454398 23.7106 0.837899 23.1479 1.34906 22.7167C1.86022 22.2856 2.47957 22.0025 3.14007 21.898L19.3681 19.544C19.9756 19.4806 20.5573 19.2648 21.0593 18.9168C21.5614 18.5688 21.9675 18.0997 22.2401 17.553L29.3911 2.89205C29.5583 2.56491 29.7775 2.26705 30.0401 2.01005L30.3401 1.78205C30.4924 1.61438 30.6699 1.47135 30.8661 1.35805L31.2221 1.22705L31.7741 0.998047H33.1491C33.7531 1.06002 34.3321 1.27161 34.8337 1.61366C35.3353 1.95571 35.7438 2.41743 36.0221 2.95705L43.2681 17.557C43.526 18.0824 43.9072 18.5375 44.3791 18.8837C44.8509 19.2298 45.3995 19.4568 45.9781 19.545L62.2061 21.898C62.8783 21.9943 63.5112 22.2737 64.0352 22.7057C64.5593 23.1376 64.9543 23.7055 65.1771 24.347C65.3866 24.9885 65.4087 25.6764 65.241 26.33C65.0733 26.9836 64.7226 27.5758 64.2301 28.037L52.0191 39.593Z" fill="#F7A92B"/>
</svg>
