<svg width="21" height="21" viewBox="0 0 21 21" fill="none" xmlns="http://www.w3.org/2000/svg">
<path d="M15.6401 20.3298C15.4182 20.3295 15.1997 20.2746 15.0041 20.1698L10.6151 17.8808C10.4964 17.8186 10.3651 17.7844 10.2311 17.7808H9.98612C9.92728 17.7911 9.87053 17.8111 9.81812 17.8398L5.41812 20.1398C5.15255 20.2734 4.85175 20.3202 4.55812 20.2738H4.55512C4.20765 20.2101 3.89922 20.0122 3.69654 19.7229C3.49387 19.4336 3.41324 19.0761 3.47212 18.7278L4.35512 13.8448C4.37672 13.7095 4.36567 13.571 4.32288 13.4409C4.28008 13.3108 4.20679 13.1928 4.10912 13.0968L0.53112 9.62777C0.350845 9.45234 0.224187 9.22925 0.165932 8.98455C0.107677 8.73984 0.120228 8.48361 0.20212 8.24577C0.281689 8.01065 0.424134 7.80181 0.613996 7.64191C0.803859 7.48202 1.03389 7.37718 1.27912 7.33877L6.22012 6.62177C6.36296 6.60743 6.49983 6.55706 6.61789 6.47538C6.73595 6.3937 6.83134 6.28338 6.89512 6.15477L9.07012 1.69877C9.13378 1.57507 9.21721 1.46259 9.31712 1.36577L9.33712 1.34877L9.41012 1.29177C9.46901 1.22938 9.53633 1.17553 9.61012 1.13177L9.62912 1.12077L9.75312 1.07477L9.96312 0.98877H10.4561C10.6816 1.01112 10.8979 1.08965 11.0851 1.21718C11.2724 1.34471 11.4247 1.51717 11.5281 1.71877L13.7281 6.15377C13.7886 6.27743 13.8781 6.38461 13.9891 6.46611C14.1 6.54762 14.229 6.60103 14.3651 6.62177L19.2911 7.33677C19.5404 7.37239 19.7749 7.4761 19.969 7.63648C20.1631 7.79686 20.3092 8.0077 20.3911 8.24577C20.4697 8.48633 20.4783 8.74429 20.4158 8.98953C20.3533 9.23477 20.2223 9.45717 20.0381 9.63077L16.3351 13.1388C16.2382 13.2333 16.1656 13.3499 16.1235 13.4786C16.0813 13.6073 16.0709 13.7442 16.0931 13.8778L16.9741 18.7528C17.0055 18.9465 16.9945 19.1447 16.9419 19.3337C16.8893 19.5228 16.7964 19.6982 16.6695 19.8479C16.5426 19.9975 16.3848 20.118 16.2069 20.2008C16.0291 20.2837 15.8353 20.327 15.6391 20.3278L15.6401 20.3298ZM9.94812 17.2788H10.2421C10.4536 17.2846 10.661 17.339 10.8481 17.4378L15.2381 19.7268C15.3613 19.7923 15.4986 19.8267 15.6381 19.8268C15.8161 19.8274 15.9896 19.7709 16.1331 19.6658H16.1381C16.2687 19.5755 16.3703 19.4494 16.4308 19.3026C16.4913 19.1559 16.5081 18.9948 16.4791 18.8388L15.5981 13.9608C15.562 13.7464 15.5784 13.5265 15.646 13.32C15.7136 13.1134 15.8303 12.9263 15.9861 12.7748L19.6961 9.26277C19.8109 9.15502 19.8927 9.01689 19.932 8.86446C19.9713 8.71203 19.9665 8.55158 19.9181 8.40177C19.8654 8.25101 19.7723 8.11768 19.6488 8.01642C19.5253 7.91516 19.3763 7.84989 19.2181 7.82777L14.2901 7.11277C14.0747 7.08038 13.8703 6.99646 13.6943 6.86815C13.5183 6.73983 13.3759 6.57092 13.2791 6.37577L11.0791 1.94477C11.0148 1.82058 10.921 1.71406 10.8059 1.63456C10.6909 1.55506 10.558 1.505 10.4191 1.48877H10.0651L9.93312 1.53877L9.84812 1.57377C9.81745 1.59329 9.78954 1.61683 9.76512 1.64377L9.75012 1.66077L9.65512 1.73877C9.59895 1.79526 9.55173 1.86001 9.51512 1.93077L7.34512 6.37577C7.24438 6.57928 7.09383 6.75401 6.90746 6.88374C6.72109 7.01346 6.50494 7.09397 6.27912 7.11777L1.35612 7.83177C1.2014 7.8571 1.05655 7.92424 0.937226 8.02594C0.817904 8.12764 0.728652 8.26002 0.67912 8.40877C0.627352 8.55647 0.618667 8.71586 0.654081 8.86831C0.689494 9.02077 0.767545 9.16001 0.87912 9.26977L4.45912 12.7398C4.61455 12.8927 4.73101 13.0806 4.7987 13.2879C4.86639 13.4951 4.88334 13.7156 4.84812 13.9308L3.96512 18.8128C3.92919 19.031 3.98013 19.2546 4.10704 19.4357C4.23396 19.6168 4.42674 19.7411 4.64412 19.7818C4.83161 19.8106 5.02344 19.7806 5.19312 19.6958L9.58212 17.3958C9.69012 17.3373 9.80759 17.2984 9.92912 17.2808L9.94812 17.2788Z" fill="#F7A92B"/>
</svg>
