<svg xmlns="http://www.w3.org/2000/svg" width="64.67" height="44.46" viewBox="0 0 64.67 44.46"><g transform="translate(0 -3)"><path d="M61.921,7.284c-1.754-3.12-3.658-3.694-7.534-3.913C50.515,3.109,40.778,3,32.343,3c-8.452,0-18.192.109-22.061.368-3.868.222-5.776.792-7.546,3.917C.93,10.4,0,15.768,0,25.218v.032c0,9.409.93,14.817,2.736,17.9,1.77,3.12,3.674,3.686,7.542,3.949,3.872.226,13.613.36,22.065.36,8.435,0,18.172-.133,22.048-.356,3.876-.263,5.78-.829,7.534-3.949,1.823-3.084,2.744-8.492,2.744-17.9v-.032c0-9.454-.922-14.822-2.748-17.938Z" transform="translate(0)" fill="#f44336" fill-rule="evenodd"/><path d="M6,29.751V5.5L26.209,17.626Z" transform="translate(18.251 7.605)" fill="#fafafa" fill-rule="evenodd"/></g></svg>